<svg xmlns="http://www.w3.org/2000/svg" xmlns:xlink="http://www.w3.org/1999/xlink" width="500" zoomAndPan="magnify" viewBox="0 0 375 374.999991" height="500" preserveAspectRatio="xMidYMid meet" version="1.0"><defs><clipPath id="309a88dc79"><path d="M 6 131 L 374 131 L 374 350.863281 L 6 350.863281 Z M 6 131 " clip-rule="nonzero"/></clipPath><clipPath id="ba0328f128"><path d="M 0 23.863281 L 373 23.863281 L 373 108 L 0 108 Z M 0 23.863281 " clip-rule="nonzero"/></clipPath><clipPath id="a2ed2de10f"><path d="M 159 200 L 298 200 L 298 351 L 159 351 Z M 159 200 " clip-rule="nonzero"/></clipPath><clipPath id="5511f18311"><path d="M 132.65625 240.605469 L 314.933594 171.324219 L 374.890625 329.066406 L 192.613281 398.347656 Z M 132.65625 240.605469 " clip-rule="nonzero"/></clipPath><clipPath id="64fe2b7853"><path d="M 132.65625 240.605469 L 314.933594 171.324219 L 374.890625 329.066406 L 192.613281 398.347656 Z M 132.65625 240.605469 " clip-rule="nonzero"/></clipPath><clipPath id="3679aebe36"><path d="M 132.65625 240.605469 L 314.933594 171.324219 L 374.890625 329.066406 L 192.613281 398.347656 Z M 132.65625 240.605469 " clip-rule="nonzero"/></clipPath><clipPath id="6e8654a4b5"><path d="M 166 207 L 292 207 L 292 345 L 166 345 Z M 166 207 " clip-rule="nonzero"/></clipPath><clipPath id="8049a5de8b"><path d="M 132.65625 240.605469 L 314.933594 171.324219 L 374.890625 329.066406 L 192.613281 398.347656 Z M 132.65625 240.605469 " clip-rule="nonzero"/></clipPath><clipPath id="3a84408e60"><path d="M 132.65625 240.605469 L 314.933594 171.324219 L 374.890625 329.066406 L 192.613281 398.347656 Z M 132.65625 240.605469 " clip-rule="nonzero"/></clipPath><clipPath id="5d49f8f150"><path d="M 132.65625 240.605469 L 314.933594 171.324219 L 374.890625 329.066406 L 192.613281 398.347656 Z M 132.65625 240.605469 " clip-rule="nonzero"/></clipPath><clipPath id="07f761294c"><path d="M 194 297 L 213 297 L 213 316 L 194 316 Z M 194 297 " clip-rule="nonzero"/></clipPath><clipPath id="ba8c9a97e0"><path d="M 132.65625 240.605469 L 314.933594 171.324219 L 374.890625 329.066406 L 192.613281 398.347656 Z M 132.65625 240.605469 " clip-rule="nonzero"/></clipPath><clipPath id="aadf890ed0"><path d="M 132.65625 240.605469 L 314.933594 171.324219 L 374.890625 329.066406 L 192.613281 398.347656 Z M 132.65625 240.605469 " clip-rule="nonzero"/></clipPath><clipPath id="c139b11471"><path d="M 132.65625 240.605469 L 314.933594 171.324219 L 374.890625 329.066406 L 192.613281 398.347656 Z M 132.65625 240.605469 " clip-rule="nonzero"/></clipPath><clipPath id="0bc4499d26"><path d="M 202 290 L 219 290 L 219 305 L 202 305 Z M 202 290 " clip-rule="nonzero"/></clipPath><clipPath id="038291d29c"><path d="M 132.65625 240.605469 L 314.933594 171.324219 L 374.890625 329.066406 L 192.613281 398.347656 Z M 132.65625 240.605469 " clip-rule="nonzero"/></clipPath><clipPath id="7891557d21"><path d="M 132.65625 240.605469 L 314.933594 171.324219 L 374.890625 329.066406 L 192.613281 398.347656 Z M 132.65625 240.605469 " clip-rule="nonzero"/></clipPath><clipPath id="827683c1ea"><path d="M 132.65625 240.605469 L 314.933594 171.324219 L 374.890625 329.066406 L 192.613281 398.347656 Z M 132.65625 240.605469 " clip-rule="nonzero"/></clipPath><clipPath id="9825510f5d"><path d="M 207 275 L 231 275 L 231 298 L 207 298 Z M 207 275 " clip-rule="nonzero"/></clipPath><clipPath id="150e19abb2"><path d="M 132.65625 240.605469 L 314.933594 171.324219 L 374.890625 329.066406 L 192.613281 398.347656 Z M 132.65625 240.605469 " clip-rule="nonzero"/></clipPath><clipPath id="862250f96f"><path d="M 132.65625 240.605469 L 314.933594 171.324219 L 374.890625 329.066406 L 192.613281 398.347656 Z M 132.65625 240.605469 " clip-rule="nonzero"/></clipPath><clipPath id="4ae496171d"><path d="M 132.65625 240.605469 L 314.933594 171.324219 L 374.890625 329.066406 L 192.613281 398.347656 Z M 132.65625 240.605469 " clip-rule="nonzero"/></clipPath><clipPath id="00e05d97ba"><path d="M 219 262 L 241 262 L 241 283 L 219 283 Z M 219 262 " clip-rule="nonzero"/></clipPath><clipPath id="36cf4f7034"><path d="M 132.65625 240.605469 L 314.933594 171.324219 L 374.890625 329.066406 L 192.613281 398.347656 Z M 132.65625 240.605469 " clip-rule="nonzero"/></clipPath><clipPath id="2661939127"><path d="M 132.65625 240.605469 L 314.933594 171.324219 L 374.890625 329.066406 L 192.613281 398.347656 Z M 132.65625 240.605469 " clip-rule="nonzero"/></clipPath><clipPath id="425c9d80c4"><path d="M 132.65625 240.605469 L 314.933594 171.324219 L 374.890625 329.066406 L 192.613281 398.347656 Z M 132.65625 240.605469 " clip-rule="nonzero"/></clipPath><clipPath id="35f2d6963f"><path d="M 229 246 L 253 246 L 253 271 L 229 271 Z M 229 246 " clip-rule="nonzero"/></clipPath><clipPath id="d5982cd884"><path d="M 132.65625 240.605469 L 314.933594 171.324219 L 374.890625 329.066406 L 192.613281 398.347656 Z M 132.65625 240.605469 " clip-rule="nonzero"/></clipPath><clipPath id="0ef879eb39"><path d="M 132.65625 240.605469 L 314.933594 171.324219 L 374.890625 329.066406 L 192.613281 398.347656 Z M 132.65625 240.605469 " clip-rule="nonzero"/></clipPath><clipPath id="de687558b9"><path d="M 132.65625 240.605469 L 314.933594 171.324219 L 374.890625 329.066406 L 192.613281 398.347656 Z M 132.65625 240.605469 " clip-rule="nonzero"/></clipPath><clipPath id="34883b8a02"><path d="M 245 236 L 266 236 L 266 256 L 245 256 Z M 245 236 " clip-rule="nonzero"/></clipPath><clipPath id="71b9e59c6f"><path d="M 132.65625 240.605469 L 314.933594 171.324219 L 374.890625 329.066406 L 192.613281 398.347656 Z M 132.65625 240.605469 " clip-rule="nonzero"/></clipPath><clipPath id="fad49ce7f7"><path d="M 132.65625 240.605469 L 314.933594 171.324219 L 374.890625 329.066406 L 192.613281 398.347656 Z M 132.65625 240.605469 " clip-rule="nonzero"/></clipPath><clipPath id="0c56c368d5"><path d="M 132.65625 240.605469 L 314.933594 171.324219 L 374.890625 329.066406 L 192.613281 398.347656 Z M 132.65625 240.605469 " clip-rule="nonzero"/></clipPath><clipPath id="ae9aaf46cd"><path d="M 176 312 L 181 312 L 181 317 L 176 317 Z M 176 312 " clip-rule="nonzero"/></clipPath><clipPath id="cfbf0992cb"><path d="M 132.65625 240.605469 L 314.933594 171.324219 L 374.890625 329.066406 L 192.613281 398.347656 Z M 132.65625 240.605469 " clip-rule="nonzero"/></clipPath><clipPath id="99be4291d0"><path d="M 132.65625 240.605469 L 314.933594 171.324219 L 374.890625 329.066406 L 192.613281 398.347656 Z M 132.65625 240.605469 " clip-rule="nonzero"/></clipPath><clipPath id="de5a08432d"><path d="M 132.65625 240.605469 L 314.933594 171.324219 L 374.890625 329.066406 L 192.613281 398.347656 Z M 132.65625 240.605469 " clip-rule="nonzero"/></clipPath><clipPath id="169fa59b5c"><path d="M 179 314 L 185 314 L 185 320 L 179 320 Z M 179 314 " clip-rule="nonzero"/></clipPath><clipPath id="c07c5f0055"><path d="M 132.65625 240.605469 L 314.933594 171.324219 L 374.890625 329.066406 L 192.613281 398.347656 Z M 132.65625 240.605469 " clip-rule="nonzero"/></clipPath><clipPath id="8366358160"><path d="M 132.65625 240.605469 L 314.933594 171.324219 L 374.890625 329.066406 L 192.613281 398.347656 Z M 132.65625 240.605469 " clip-rule="nonzero"/></clipPath><clipPath id="1a1ff058d6"><path d="M 132.65625 240.605469 L 314.933594 171.324219 L 374.890625 329.066406 L 192.613281 398.347656 Z M 132.65625 240.605469 " clip-rule="nonzero"/></clipPath><clipPath id="9ceb703b4e"><path d="M 183 317 L 189 317 L 189 323 L 183 323 Z M 183 317 " clip-rule="nonzero"/></clipPath><clipPath id="575a91c6ee"><path d="M 132.65625 240.605469 L 314.933594 171.324219 L 374.890625 329.066406 L 192.613281 398.347656 Z M 132.65625 240.605469 " clip-rule="nonzero"/></clipPath><clipPath id="ccb665b11e"><path d="M 132.65625 240.605469 L 314.933594 171.324219 L 374.890625 329.066406 L 192.613281 398.347656 Z M 132.65625 240.605469 " clip-rule="nonzero"/></clipPath><clipPath id="4169f59c99"><path d="M 132.65625 240.605469 L 314.933594 171.324219 L 374.890625 329.066406 L 192.613281 398.347656 Z M 132.65625 240.605469 " clip-rule="nonzero"/></clipPath><clipPath id="7ae85ae9a8"><path d="M 188 322 L 193 322 L 193 327 L 188 327 Z M 188 322 " clip-rule="nonzero"/></clipPath><clipPath id="9f1f50c0fa"><path d="M 132.65625 240.605469 L 314.933594 171.324219 L 374.890625 329.066406 L 192.613281 398.347656 Z M 132.65625 240.605469 " clip-rule="nonzero"/></clipPath><clipPath id="6423141f1d"><path d="M 132.65625 240.605469 L 314.933594 171.324219 L 374.890625 329.066406 L 192.613281 398.347656 Z M 132.65625 240.605469 " clip-rule="nonzero"/></clipPath><clipPath id="4ecad0e36c"><path d="M 132.65625 240.605469 L 314.933594 171.324219 L 374.890625 329.066406 L 192.613281 398.347656 Z M 132.65625 240.605469 " clip-rule="nonzero"/></clipPath><clipPath id="e3b89097e0"><path d="M 192 324 L 198 324 L 198 330 L 192 330 Z M 192 324 " clip-rule="nonzero"/></clipPath><clipPath id="80f243f1b5"><path d="M 132.65625 240.605469 L 314.933594 171.324219 L 374.890625 329.066406 L 192.613281 398.347656 Z M 132.65625 240.605469 " clip-rule="nonzero"/></clipPath><clipPath id="e6f602870c"><path d="M 132.65625 240.605469 L 314.933594 171.324219 L 374.890625 329.066406 L 192.613281 398.347656 Z M 132.65625 240.605469 " clip-rule="nonzero"/></clipPath><clipPath id="4e0be8286d"><path d="M 132.65625 240.605469 L 314.933594 171.324219 L 374.890625 329.066406 L 192.613281 398.347656 Z M 132.65625 240.605469 " clip-rule="nonzero"/></clipPath><clipPath id="7b74b2a68c"><path d="M 196 328 L 202 328 L 202 333 L 196 333 Z M 196 328 " clip-rule="nonzero"/></clipPath><clipPath id="c61fa696f6"><path d="M 132.65625 240.605469 L 314.933594 171.324219 L 374.890625 329.066406 L 192.613281 398.347656 Z M 132.65625 240.605469 " clip-rule="nonzero"/></clipPath><clipPath id="953f04d23e"><path d="M 132.65625 240.605469 L 314.933594 171.324219 L 374.890625 329.066406 L 192.613281 398.347656 Z M 132.65625 240.605469 " clip-rule="nonzero"/></clipPath><clipPath id="3eb9fa6b47"><path d="M 132.65625 240.605469 L 314.933594 171.324219 L 374.890625 329.066406 L 192.613281 398.347656 Z M 132.65625 240.605469 " clip-rule="nonzero"/></clipPath><clipPath id="249178cf6a"><path d="M 200 331 L 206 331 L 206 336 L 200 336 Z M 200 331 " clip-rule="nonzero"/></clipPath><clipPath id="265dee2660"><path d="M 132.65625 240.605469 L 314.933594 171.324219 L 374.890625 329.066406 L 192.613281 398.347656 Z M 132.65625 240.605469 " clip-rule="nonzero"/></clipPath><clipPath id="c31cff2315"><path d="M 132.65625 240.605469 L 314.933594 171.324219 L 374.890625 329.066406 L 192.613281 398.347656 Z M 132.65625 240.605469 " clip-rule="nonzero"/></clipPath><clipPath id="a4d272af47"><path d="M 132.65625 240.605469 L 314.933594 171.324219 L 374.890625 329.066406 L 192.613281 398.347656 Z M 132.65625 240.605469 " clip-rule="nonzero"/></clipPath><clipPath id="b055baf948"><path d="M 278 234 L 283 234 L 283 240 L 278 240 Z M 278 234 " clip-rule="nonzero"/></clipPath><clipPath id="6d6dbc12c2"><path d="M 132.65625 240.605469 L 314.933594 171.324219 L 374.890625 329.066406 L 192.613281 398.347656 Z M 132.65625 240.605469 " clip-rule="nonzero"/></clipPath><clipPath id="488910215d"><path d="M 132.65625 240.605469 L 314.933594 171.324219 L 374.890625 329.066406 L 192.613281 398.347656 Z M 132.65625 240.605469 " clip-rule="nonzero"/></clipPath><clipPath id="60999efa30"><path d="M 132.65625 240.605469 L 314.933594 171.324219 L 374.890625 329.066406 L 192.613281 398.347656 Z M 132.65625 240.605469 " clip-rule="nonzero"/></clipPath><clipPath id="7be45f6688"><path d="M 275 231 L 280 231 L 280 237 L 275 237 Z M 275 231 " clip-rule="nonzero"/></clipPath><clipPath id="8433b314b6"><path d="M 132.65625 240.605469 L 314.933594 171.324219 L 374.890625 329.066406 L 192.613281 398.347656 Z M 132.65625 240.605469 " clip-rule="nonzero"/></clipPath><clipPath id="07c70953bb"><path d="M 132.65625 240.605469 L 314.933594 171.324219 L 374.890625 329.066406 L 192.613281 398.347656 Z M 132.65625 240.605469 " clip-rule="nonzero"/></clipPath><clipPath id="5831d04204"><path d="M 132.65625 240.605469 L 314.933594 171.324219 L 374.890625 329.066406 L 192.613281 398.347656 Z M 132.65625 240.605469 " clip-rule="nonzero"/></clipPath><clipPath id="e77c190277"><path d="M 270 228 L 276 228 L 276 234 L 270 234 Z M 270 228 " clip-rule="nonzero"/></clipPath><clipPath id="835299a771"><path d="M 132.65625 240.605469 L 314.933594 171.324219 L 374.890625 329.066406 L 192.613281 398.347656 Z M 132.65625 240.605469 " clip-rule="nonzero"/></clipPath><clipPath id="62c7c31f2f"><path d="M 132.65625 240.605469 L 314.933594 171.324219 L 374.890625 329.066406 L 192.613281 398.347656 Z M 132.65625 240.605469 " clip-rule="nonzero"/></clipPath><clipPath id="4584eec824"><path d="M 132.65625 240.605469 L 314.933594 171.324219 L 374.890625 329.066406 L 192.613281 398.347656 Z M 132.65625 240.605469 " clip-rule="nonzero"/></clipPath><clipPath id="effe65d75d"><path d="M 266 225 L 271 225 L 271 230 L 266 230 Z M 266 225 " clip-rule="nonzero"/></clipPath><clipPath id="9ade850953"><path d="M 132.65625 240.605469 L 314.933594 171.324219 L 374.890625 329.066406 L 192.613281 398.347656 Z M 132.65625 240.605469 " clip-rule="nonzero"/></clipPath><clipPath id="e6e3e8a721"><path d="M 132.65625 240.605469 L 314.933594 171.324219 L 374.890625 329.066406 L 192.613281 398.347656 Z M 132.65625 240.605469 " clip-rule="nonzero"/></clipPath><clipPath id="709f3d294b"><path d="M 132.65625 240.605469 L 314.933594 171.324219 L 374.890625 329.066406 L 192.613281 398.347656 Z M 132.65625 240.605469 " clip-rule="nonzero"/></clipPath><clipPath id="6886c0b946"><path d="M 261 221 L 267 221 L 267 227 L 261 227 Z M 261 221 " clip-rule="nonzero"/></clipPath><clipPath id="9eb2333d1b"><path d="M 132.65625 240.605469 L 314.933594 171.324219 L 374.890625 329.066406 L 192.613281 398.347656 Z M 132.65625 240.605469 " clip-rule="nonzero"/></clipPath><clipPath id="fef7005249"><path d="M 132.65625 240.605469 L 314.933594 171.324219 L 374.890625 329.066406 L 192.613281 398.347656 Z M 132.65625 240.605469 " clip-rule="nonzero"/></clipPath><clipPath id="a8a93525dd"><path d="M 132.65625 240.605469 L 314.933594 171.324219 L 374.890625 329.066406 L 192.613281 398.347656 Z M 132.65625 240.605469 " clip-rule="nonzero"/></clipPath><clipPath id="d8ba0a4233"><path d="M 257 218 L 263 218 L 263 223 L 257 223 Z M 257 218 " clip-rule="nonzero"/></clipPath><clipPath id="cf20c8c86a"><path d="M 132.65625 240.605469 L 314.933594 171.324219 L 374.890625 329.066406 L 192.613281 398.347656 Z M 132.65625 240.605469 " clip-rule="nonzero"/></clipPath><clipPath id="98114f128d"><path d="M 132.65625 240.605469 L 314.933594 171.324219 L 374.890625 329.066406 L 192.613281 398.347656 Z M 132.65625 240.605469 " clip-rule="nonzero"/></clipPath><clipPath id="fd1ec52eee"><path d="M 132.65625 240.605469 L 314.933594 171.324219 L 374.890625 329.066406 L 192.613281 398.347656 Z M 132.65625 240.605469 " clip-rule="nonzero"/></clipPath><clipPath id="c8e767039c"><path d="M 253 216 L 259 216 L 259 221 L 253 221 Z M 253 216 " clip-rule="nonzero"/></clipPath><clipPath id="c2cb35f637"><path d="M 132.65625 240.605469 L 314.933594 171.324219 L 374.890625 329.066406 L 192.613281 398.347656 Z M 132.65625 240.605469 " clip-rule="nonzero"/></clipPath><clipPath id="300c030787"><path d="M 132.65625 240.605469 L 314.933594 171.324219 L 374.890625 329.066406 L 192.613281 398.347656 Z M 132.65625 240.605469 " clip-rule="nonzero"/></clipPath><clipPath id="dceb8b37f0"><path d="M 132.65625 240.605469 L 314.933594 171.324219 L 374.890625 329.066406 L 192.613281 398.347656 Z M 132.65625 240.605469 " clip-rule="nonzero"/></clipPath><clipPath id="b97820faac"><path d="M 184 288 L 195 288 L 195 299 L 184 299 Z M 184 288 " clip-rule="nonzero"/></clipPath><clipPath id="46b5a3f6a4"><path d="M 132.65625 240.605469 L 314.933594 171.324219 L 374.890625 329.066406 L 192.613281 398.347656 Z M 132.65625 240.605469 " clip-rule="nonzero"/></clipPath><clipPath id="64c70dca6b"><path d="M 132.65625 240.605469 L 314.933594 171.324219 L 374.890625 329.066406 L 192.613281 398.347656 Z M 132.65625 240.605469 " clip-rule="nonzero"/></clipPath><clipPath id="d97329fc61"><path d="M 132.65625 240.605469 L 314.933594 171.324219 L 374.890625 329.066406 L 192.613281 398.347656 Z M 132.65625 240.605469 " clip-rule="nonzero"/></clipPath><clipPath id="eeedcdd4f2"><path d="M 193 275 L 205 275 L 205 287 L 193 287 Z M 193 275 " clip-rule="nonzero"/></clipPath><clipPath id="51ea3f6eaf"><path d="M 132.65625 240.605469 L 314.933594 171.324219 L 374.890625 329.066406 L 192.613281 398.347656 Z M 132.65625 240.605469 " clip-rule="nonzero"/></clipPath><clipPath id="dc1b817f2c"><path d="M 132.65625 240.605469 L 314.933594 171.324219 L 374.890625 329.066406 L 192.613281 398.347656 Z M 132.65625 240.605469 " clip-rule="nonzero"/></clipPath><clipPath id="d475d57172"><path d="M 132.65625 240.605469 L 314.933594 171.324219 L 374.890625 329.066406 L 192.613281 398.347656 Z M 132.65625 240.605469 " clip-rule="nonzero"/></clipPath><clipPath id="aae04ac1de"><path d="M 203 264 L 214 264 L 214 275 L 203 275 Z M 203 264 " clip-rule="nonzero"/></clipPath><clipPath id="33b8e4cf69"><path d="M 132.65625 240.605469 L 314.933594 171.324219 L 374.890625 329.066406 L 192.613281 398.347656 Z M 132.65625 240.605469 " clip-rule="nonzero"/></clipPath><clipPath id="3b3e1002ba"><path d="M 132.65625 240.605469 L 314.933594 171.324219 L 374.890625 329.066406 L 192.613281 398.347656 Z M 132.65625 240.605469 " clip-rule="nonzero"/></clipPath><clipPath id="07164e0e8b"><path d="M 132.65625 240.605469 L 314.933594 171.324219 L 374.890625 329.066406 L 192.613281 398.347656 Z M 132.65625 240.605469 " clip-rule="nonzero"/></clipPath><clipPath id="0774a04600"><path d="M 212 251 L 223 251 L 223 263 L 212 263 Z M 212 251 " clip-rule="nonzero"/></clipPath><clipPath id="831ab90690"><path d="M 132.65625 240.605469 L 314.933594 171.324219 L 374.890625 329.066406 L 192.613281 398.347656 Z M 132.65625 240.605469 " clip-rule="nonzero"/></clipPath><clipPath id="2b4a150615"><path d="M 132.65625 240.605469 L 314.933594 171.324219 L 374.890625 329.066406 L 192.613281 398.347656 Z M 132.65625 240.605469 " clip-rule="nonzero"/></clipPath><clipPath id="2f55723bbd"><path d="M 132.65625 240.605469 L 314.933594 171.324219 L 374.890625 329.066406 L 192.613281 398.347656 Z M 132.65625 240.605469 " clip-rule="nonzero"/></clipPath><clipPath id="1c0add9831"><path d="M 222 239 L 233 239 L 233 251 L 222 251 Z M 222 239 " clip-rule="nonzero"/></clipPath><clipPath id="49752f02de"><path d="M 132.65625 240.605469 L 314.933594 171.324219 L 374.890625 329.066406 L 192.613281 398.347656 Z M 132.65625 240.605469 " clip-rule="nonzero"/></clipPath><clipPath id="e5224217ab"><path d="M 132.65625 240.605469 L 314.933594 171.324219 L 374.890625 329.066406 L 192.613281 398.347656 Z M 132.65625 240.605469 " clip-rule="nonzero"/></clipPath><clipPath id="66bc6fd4be"><path d="M 132.65625 240.605469 L 314.933594 171.324219 L 374.890625 329.066406 L 192.613281 398.347656 Z M 132.65625 240.605469 " clip-rule="nonzero"/></clipPath><clipPath id="b67e0f0974"><path d="M 231 227 L 242 227 L 242 238 L 231 238 Z M 231 227 " clip-rule="nonzero"/></clipPath><clipPath id="781469fdbb"><path d="M 132.65625 240.605469 L 314.933594 171.324219 L 374.890625 329.066406 L 192.613281 398.347656 Z M 132.65625 240.605469 " clip-rule="nonzero"/></clipPath><clipPath id="3c4d674945"><path d="M 132.65625 240.605469 L 314.933594 171.324219 L 374.890625 329.066406 L 192.613281 398.347656 Z M 132.65625 240.605469 " clip-rule="nonzero"/></clipPath><clipPath id="b55f7d34d5"><path d="M 132.65625 240.605469 L 314.933594 171.324219 L 374.890625 329.066406 L 192.613281 398.347656 Z M 132.65625 240.605469 " clip-rule="nonzero"/></clipPath><clipPath id="652e92a896"><path d="M 244 274 L 256 274 L 256 286 L 244 286 Z M 244 274 " clip-rule="nonzero"/></clipPath><clipPath id="2cf6a5a0af"><path d="M 132.65625 240.605469 L 314.933594 171.324219 L 374.890625 329.066406 L 192.613281 398.347656 Z M 132.65625 240.605469 " clip-rule="nonzero"/></clipPath><clipPath id="cba0f27cab"><path d="M 132.65625 240.605469 L 314.933594 171.324219 L 374.890625 329.066406 L 192.613281 398.347656 Z M 132.65625 240.605469 " clip-rule="nonzero"/></clipPath><clipPath id="42c96612f0"><path d="M 132.65625 240.605469 L 314.933594 171.324219 L 374.890625 329.066406 L 192.613281 398.347656 Z M 132.65625 240.605469 " clip-rule="nonzero"/></clipPath><clipPath id="fb3a48e138"><path d="M 254 262 L 265 262 L 265 274 L 254 274 Z M 254 262 " clip-rule="nonzero"/></clipPath><clipPath id="d159bb2f61"><path d="M 132.65625 240.605469 L 314.933594 171.324219 L 374.890625 329.066406 L 192.613281 398.347656 Z M 132.65625 240.605469 " clip-rule="nonzero"/></clipPath><clipPath id="eb638ad6d9"><path d="M 132.65625 240.605469 L 314.933594 171.324219 L 374.890625 329.066406 L 192.613281 398.347656 Z M 132.65625 240.605469 " clip-rule="nonzero"/></clipPath><clipPath id="e26bc4bca5"><path d="M 132.65625 240.605469 L 314.933594 171.324219 L 374.890625 329.066406 L 192.613281 398.347656 Z M 132.65625 240.605469 " clip-rule="nonzero"/></clipPath><clipPath id="b6ef0d540e"><path d="M 263 250 L 275 250 L 275 262 L 263 262 Z M 263 250 " clip-rule="nonzero"/></clipPath><clipPath id="95f0588653"><path d="M 132.65625 240.605469 L 314.933594 171.324219 L 374.890625 329.066406 L 192.613281 398.347656 Z M 132.65625 240.605469 " clip-rule="nonzero"/></clipPath><clipPath id="c6b25e275c"><path d="M 132.65625 240.605469 L 314.933594 171.324219 L 374.890625 329.066406 L 192.613281 398.347656 Z M 132.65625 240.605469 " clip-rule="nonzero"/></clipPath><clipPath id="755174669d"><path d="M 132.65625 240.605469 L 314.933594 171.324219 L 374.890625 329.066406 L 192.613281 398.347656 Z M 132.65625 240.605469 " clip-rule="nonzero"/></clipPath><clipPath id="bc9a380b4c"><path d="M 205 243 L 361 243 L 361 375 L 205 375 Z M 205 243 " clip-rule="nonzero"/></clipPath><clipPath id="51ddf17536"><path d="M 132.65625 240.605469 L 314.933594 171.324219 L 374.890625 329.066406 L 192.613281 398.347656 Z M 132.65625 240.605469 " clip-rule="nonzero"/></clipPath><clipPath id="20ec404996"><path d="M 132.65625 240.605469 L 314.933594 171.324219 L 374.890625 329.066406 L 192.613281 398.347656 Z M 132.65625 240.605469 " clip-rule="nonzero"/></clipPath><clipPath id="d358b51172"><path d="M 132.65625 240.605469 L 314.933594 171.324219 L 374.890625 329.066406 L 192.613281 398.347656 Z M 132.65625 240.605469 " clip-rule="nonzero"/></clipPath><clipPath id="d355856a75"><path d="M 212 250 L 355 250 L 355 370 L 212 370 Z M 212 250 " clip-rule="nonzero"/></clipPath><clipPath id="cc60970bf1"><path d="M 132.65625 240.605469 L 314.933594 171.324219 L 374.890625 329.066406 L 192.613281 398.347656 Z M 132.65625 240.605469 " clip-rule="nonzero"/></clipPath><clipPath id="6969a55f3d"><path d="M 132.65625 240.605469 L 314.933594 171.324219 L 374.890625 329.066406 L 192.613281 398.347656 Z M 132.65625 240.605469 " clip-rule="nonzero"/></clipPath><clipPath id="a6a7d52b8b"><path d="M 132.65625 240.605469 L 314.933594 171.324219 L 374.890625 329.066406 L 192.613281 398.347656 Z M 132.65625 240.605469 " clip-rule="nonzero"/></clipPath><clipPath id="f7a950d3ce"><path d="M 239 321 L 258 321 L 258 339 L 239 339 Z M 239 321 " clip-rule="nonzero"/></clipPath><clipPath id="8358cbeb1d"><path d="M 132.65625 240.605469 L 314.933594 171.324219 L 374.890625 329.066406 L 192.613281 398.347656 Z M 132.65625 240.605469 " clip-rule="nonzero"/></clipPath><clipPath id="773e80dd0e"><path d="M 132.65625 240.605469 L 314.933594 171.324219 L 374.890625 329.066406 L 192.613281 398.347656 Z M 132.65625 240.605469 " clip-rule="nonzero"/></clipPath><clipPath id="b6d06a71cd"><path d="M 132.65625 240.605469 L 314.933594 171.324219 L 374.890625 329.066406 L 192.613281 398.347656 Z M 132.65625 240.605469 " clip-rule="nonzero"/></clipPath><clipPath id="6ccc7115f9"><path d="M 252 315 L 265 315 L 265 333 L 252 333 Z M 252 315 " clip-rule="nonzero"/></clipPath><clipPath id="8c93d4f73c"><path d="M 132.65625 240.605469 L 314.933594 171.324219 L 374.890625 329.066406 L 192.613281 398.347656 Z M 132.65625 240.605469 " clip-rule="nonzero"/></clipPath><clipPath id="0b833030ad"><path d="M 132.65625 240.605469 L 314.933594 171.324219 L 374.890625 329.066406 L 192.613281 398.347656 Z M 132.65625 240.605469 " clip-rule="nonzero"/></clipPath><clipPath id="cf1e3aa9a2"><path d="M 132.65625 240.605469 L 314.933594 171.324219 L 374.890625 329.066406 L 192.613281 398.347656 Z M 132.65625 240.605469 " clip-rule="nonzero"/></clipPath><clipPath id="d2c4f654a1"><path d="M 259 306 L 281 306 L 281 329 L 259 329 Z M 259 306 " clip-rule="nonzero"/></clipPath><clipPath id="7f0341d952"><path d="M 132.65625 240.605469 L 314.933594 171.324219 L 374.890625 329.066406 L 192.613281 398.347656 Z M 132.65625 240.605469 " clip-rule="nonzero"/></clipPath><clipPath id="5bfd618160"><path d="M 132.65625 240.605469 L 314.933594 171.324219 L 374.890625 329.066406 L 192.613281 398.347656 Z M 132.65625 240.605469 " clip-rule="nonzero"/></clipPath><clipPath id="52ba904bf5"><path d="M 132.65625 240.605469 L 314.933594 171.324219 L 374.890625 329.066406 L 192.613281 398.347656 Z M 132.65625 240.605469 " clip-rule="nonzero"/></clipPath><clipPath id="6b6f33c8a1"><path d="M 275 297 L 295 297 L 295 319 L 275 319 Z M 275 297 " clip-rule="nonzero"/></clipPath><clipPath id="6f877e9e29"><path d="M 132.65625 240.605469 L 314.933594 171.324219 L 374.890625 329.066406 L 192.613281 398.347656 Z M 132.65625 240.605469 " clip-rule="nonzero"/></clipPath><clipPath id="338b865d5e"><path d="M 132.65625 240.605469 L 314.933594 171.324219 L 374.890625 329.066406 L 192.613281 398.347656 Z M 132.65625 240.605469 " clip-rule="nonzero"/></clipPath><clipPath id="83851b97b1"><path d="M 132.65625 240.605469 L 314.933594 171.324219 L 374.890625 329.066406 L 192.613281 398.347656 Z M 132.65625 240.605469 " clip-rule="nonzero"/></clipPath><clipPath id="9919a1e2b8"><path d="M 289 287 L 313 287 L 313 311 L 289 311 Z M 289 287 " clip-rule="nonzero"/></clipPath><clipPath id="2e2434080d"><path d="M 132.65625 240.605469 L 314.933594 171.324219 L 374.890625 329.066406 L 192.613281 398.347656 Z M 132.65625 240.605469 " clip-rule="nonzero"/></clipPath><clipPath id="d15606c7a2"><path d="M 132.65625 240.605469 L 314.933594 171.324219 L 374.890625 329.066406 L 192.613281 398.347656 Z M 132.65625 240.605469 " clip-rule="nonzero"/></clipPath><clipPath id="86ea1a53b3"><path d="M 132.65625 240.605469 L 314.933594 171.324219 L 374.890625 329.066406 L 192.613281 398.347656 Z M 132.65625 240.605469 " clip-rule="nonzero"/></clipPath><clipPath id="d47394f7da"><path d="M 312 280 L 330 280 L 330 301 L 312 301 Z M 312 280 " clip-rule="nonzero"/></clipPath><clipPath id="81b2787bac"><path d="M 132.65625 240.605469 L 314.933594 171.324219 L 374.890625 329.066406 L 192.613281 398.347656 Z M 132.65625 240.605469 " clip-rule="nonzero"/></clipPath><clipPath id="1c4e5269f1"><path d="M 132.65625 240.605469 L 314.933594 171.324219 L 374.890625 329.066406 L 192.613281 398.347656 Z M 132.65625 240.605469 " clip-rule="nonzero"/></clipPath><clipPath id="4e5f65ef70"><path d="M 132.65625 240.605469 L 314.933594 171.324219 L 374.890625 329.066406 L 192.613281 398.347656 Z M 132.65625 240.605469 " clip-rule="nonzero"/></clipPath><clipPath id="7d430f28ff"><path d="M 220 325 L 225 325 L 225 330 L 220 330 Z M 220 325 " clip-rule="nonzero"/></clipPath><clipPath id="02b84833df"><path d="M 132.65625 240.605469 L 314.933594 171.324219 L 374.890625 329.066406 L 192.613281 398.347656 Z M 132.65625 240.605469 " clip-rule="nonzero"/></clipPath><clipPath id="2b750204d5"><path d="M 132.65625 240.605469 L 314.933594 171.324219 L 374.890625 329.066406 L 192.613281 398.347656 Z M 132.65625 240.605469 " clip-rule="nonzero"/></clipPath><clipPath id="e775fddec2"><path d="M 132.65625 240.605469 L 314.933594 171.324219 L 374.890625 329.066406 L 192.613281 398.347656 Z M 132.65625 240.605469 " clip-rule="nonzero"/></clipPath><clipPath id="4b0d5cf35e"><path d="M 221 329 L 227 329 L 227 335 L 221 335 Z M 221 329 " clip-rule="nonzero"/></clipPath><clipPath id="b0fa5fa0a6"><path d="M 132.65625 240.605469 L 314.933594 171.324219 L 374.890625 329.066406 L 192.613281 398.347656 Z M 132.65625 240.605469 " clip-rule="nonzero"/></clipPath><clipPath id="7d5ec2e2f7"><path d="M 132.65625 240.605469 L 314.933594 171.324219 L 374.890625 329.066406 L 192.613281 398.347656 Z M 132.65625 240.605469 " clip-rule="nonzero"/></clipPath><clipPath id="640daf1581"><path d="M 132.65625 240.605469 L 314.933594 171.324219 L 374.890625 329.066406 L 192.613281 398.347656 Z M 132.65625 240.605469 " clip-rule="nonzero"/></clipPath><clipPath id="97cd74dda4"><path d="M 224 333 L 230 333 L 230 339 L 224 339 Z M 224 333 " clip-rule="nonzero"/></clipPath><clipPath id="a529df9887"><path d="M 132.65625 240.605469 L 314.933594 171.324219 L 374.890625 329.066406 L 192.613281 398.347656 Z M 132.65625 240.605469 " clip-rule="nonzero"/></clipPath><clipPath id="6cfe60d0a8"><path d="M 132.65625 240.605469 L 314.933594 171.324219 L 374.890625 329.066406 L 192.613281 398.347656 Z M 132.65625 240.605469 " clip-rule="nonzero"/></clipPath><clipPath id="5a24fa5de9"><path d="M 132.65625 240.605469 L 314.933594 171.324219 L 374.890625 329.066406 L 192.613281 398.347656 Z M 132.65625 240.605469 " clip-rule="nonzero"/></clipPath><clipPath id="f75c59dceb"><path d="M 228 339 L 233 339 L 233 344 L 228 344 Z M 228 339 " clip-rule="nonzero"/></clipPath><clipPath id="7ea026f55a"><path d="M 132.65625 240.605469 L 314.933594 171.324219 L 374.890625 329.066406 L 192.613281 398.347656 Z M 132.65625 240.605469 " clip-rule="nonzero"/></clipPath><clipPath id="488eafd497"><path d="M 132.65625 240.605469 L 314.933594 171.324219 L 374.890625 329.066406 L 192.613281 398.347656 Z M 132.65625 240.605469 " clip-rule="nonzero"/></clipPath><clipPath id="720ab2234d"><path d="M 132.65625 240.605469 L 314.933594 171.324219 L 374.890625 329.066406 L 192.613281 398.347656 Z M 132.65625 240.605469 " clip-rule="nonzero"/></clipPath><clipPath id="b95b517cfe"><path d="M 230 343 L 236 343 L 236 348 L 230 348 Z M 230 343 " clip-rule="nonzero"/></clipPath><clipPath id="cb9ce3bb5a"><path d="M 132.65625 240.605469 L 314.933594 171.324219 L 374.890625 329.066406 L 192.613281 398.347656 Z M 132.65625 240.605469 " clip-rule="nonzero"/></clipPath><clipPath id="d616932d53"><path d="M 132.65625 240.605469 L 314.933594 171.324219 L 374.890625 329.066406 L 192.613281 398.347656 Z M 132.65625 240.605469 " clip-rule="nonzero"/></clipPath><clipPath id="9cefb2f235"><path d="M 132.65625 240.605469 L 314.933594 171.324219 L 374.890625 329.066406 L 192.613281 398.347656 Z M 132.65625 240.605469 " clip-rule="nonzero"/></clipPath><clipPath id="a0004d87e9"><path d="M 233 348 L 239 348 L 239 353 L 233 353 Z M 233 348 " clip-rule="nonzero"/></clipPath><clipPath id="c7bb64df21"><path d="M 132.65625 240.605469 L 314.933594 171.324219 L 374.890625 329.066406 L 192.613281 398.347656 Z M 132.65625 240.605469 " clip-rule="nonzero"/></clipPath><clipPath id="d0a50533ce"><path d="M 132.65625 240.605469 L 314.933594 171.324219 L 374.890625 329.066406 L 192.613281 398.347656 Z M 132.65625 240.605469 " clip-rule="nonzero"/></clipPath><clipPath id="a50e81ef4d"><path d="M 132.65625 240.605469 L 314.933594 171.324219 L 374.890625 329.066406 L 192.613281 398.347656 Z M 132.65625 240.605469 " clip-rule="nonzero"/></clipPath><clipPath id="98ab942f87"><path d="M 235 352 L 242 352 L 242 356 L 235 356 Z M 235 352 " clip-rule="nonzero"/></clipPath><clipPath id="3bcf5e1e39"><path d="M 132.65625 240.605469 L 314.933594 171.324219 L 374.890625 329.066406 L 192.613281 398.347656 Z M 132.65625 240.605469 " clip-rule="nonzero"/></clipPath><clipPath id="f7f54fdc0d"><path d="M 132.65625 240.605469 L 314.933594 171.324219 L 374.890625 329.066406 L 192.613281 398.347656 Z M 132.65625 240.605469 " clip-rule="nonzero"/></clipPath><clipPath id="07fb435fdc"><path d="M 132.65625 240.605469 L 314.933594 171.324219 L 374.890625 329.066406 L 192.613281 398.347656 Z M 132.65625 240.605469 " clip-rule="nonzero"/></clipPath><clipPath id="74f4e9f5d3"><path d="M 343 291 L 348 291 L 348 296 L 343 296 Z M 343 291 " clip-rule="nonzero"/></clipPath><clipPath id="1cc06e227f"><path d="M 132.65625 240.605469 L 314.933594 171.324219 L 374.890625 329.066406 L 192.613281 398.347656 Z M 132.65625 240.605469 " clip-rule="nonzero"/></clipPath><clipPath id="934e0fbd5e"><path d="M 132.65625 240.605469 L 314.933594 171.324219 L 374.890625 329.066406 L 192.613281 398.347656 Z M 132.65625 240.605469 " clip-rule="nonzero"/></clipPath><clipPath id="2380016025"><path d="M 132.65625 240.605469 L 314.933594 171.324219 L 374.890625 329.066406 L 192.613281 398.347656 Z M 132.65625 240.605469 " clip-rule="nonzero"/></clipPath><clipPath id="a3d38ff654"><path d="M 341 286 L 347 286 L 347 292 L 341 292 Z M 341 286 " clip-rule="nonzero"/></clipPath><clipPath id="f564700bbd"><path d="M 132.65625 240.605469 L 314.933594 171.324219 L 374.890625 329.066406 L 192.613281 398.347656 Z M 132.65625 240.605469 " clip-rule="nonzero"/></clipPath><clipPath id="e9edc2d7c5"><path d="M 132.65625 240.605469 L 314.933594 171.324219 L 374.890625 329.066406 L 192.613281 398.347656 Z M 132.65625 240.605469 " clip-rule="nonzero"/></clipPath><clipPath id="2ccd910152"><path d="M 132.65625 240.605469 L 314.933594 171.324219 L 374.890625 329.066406 L 192.613281 398.347656 Z M 132.65625 240.605469 " clip-rule="nonzero"/></clipPath><clipPath id="ff307c2af5"><path d="M 338 282 L 344 282 L 344 288 L 338 288 Z M 338 282 " clip-rule="nonzero"/></clipPath><clipPath id="53aaba1024"><path d="M 132.65625 240.605469 L 314.933594 171.324219 L 374.890625 329.066406 L 192.613281 398.347656 Z M 132.65625 240.605469 " clip-rule="nonzero"/></clipPath><clipPath id="fa928a63ba"><path d="M 132.65625 240.605469 L 314.933594 171.324219 L 374.890625 329.066406 L 192.613281 398.347656 Z M 132.65625 240.605469 " clip-rule="nonzero"/></clipPath><clipPath id="540dd512af"><path d="M 132.65625 240.605469 L 314.933594 171.324219 L 374.890625 329.066406 L 192.613281 398.347656 Z M 132.65625 240.605469 " clip-rule="nonzero"/></clipPath><clipPath id="2a33ac4cd9"><path d="M 335 277 L 340 277 L 340 282 L 335 282 Z M 335 277 " clip-rule="nonzero"/></clipPath><clipPath id="aca77969f4"><path d="M 132.65625 240.605469 L 314.933594 171.324219 L 374.890625 329.066406 L 192.613281 398.347656 Z M 132.65625 240.605469 " clip-rule="nonzero"/></clipPath><clipPath id="259a5c40d9"><path d="M 132.65625 240.605469 L 314.933594 171.324219 L 374.890625 329.066406 L 192.613281 398.347656 Z M 132.65625 240.605469 " clip-rule="nonzero"/></clipPath><clipPath id="4f5a138d94"><path d="M 132.65625 240.605469 L 314.933594 171.324219 L 374.890625 329.066406 L 192.613281 398.347656 Z M 132.65625 240.605469 " clip-rule="nonzero"/></clipPath><clipPath id="917ee59db7"><path d="M 332 273 L 338 273 L 338 278 L 332 278 Z M 332 273 " clip-rule="nonzero"/></clipPath><clipPath id="1eebe05eed"><path d="M 132.65625 240.605469 L 314.933594 171.324219 L 374.890625 329.066406 L 192.613281 398.347656 Z M 132.65625 240.605469 " clip-rule="nonzero"/></clipPath><clipPath id="9426b5caa1"><path d="M 132.65625 240.605469 L 314.933594 171.324219 L 374.890625 329.066406 L 192.613281 398.347656 Z M 132.65625 240.605469 " clip-rule="nonzero"/></clipPath><clipPath id="bf4c442504"><path d="M 132.65625 240.605469 L 314.933594 171.324219 L 374.890625 329.066406 L 192.613281 398.347656 Z M 132.65625 240.605469 " clip-rule="nonzero"/></clipPath><clipPath id="3b7e5da037"><path d="M 329 268 L 335 268 L 335 273 L 329 273 Z M 329 268 " clip-rule="nonzero"/></clipPath><clipPath id="49f9e93264"><path d="M 132.65625 240.605469 L 314.933594 171.324219 L 374.890625 329.066406 L 192.613281 398.347656 Z M 132.65625 240.605469 " clip-rule="nonzero"/></clipPath><clipPath id="0e0be79f5f"><path d="M 132.65625 240.605469 L 314.933594 171.324219 L 374.890625 329.066406 L 192.613281 398.347656 Z M 132.65625 240.605469 " clip-rule="nonzero"/></clipPath><clipPath id="7bd1d0a7b7"><path d="M 132.65625 240.605469 L 314.933594 171.324219 L 374.890625 329.066406 L 192.613281 398.347656 Z M 132.65625 240.605469 " clip-rule="nonzero"/></clipPath><clipPath id="b4e5a81835"><path d="M 326 265 L 333 265 L 333 269 L 326 269 Z M 326 265 " clip-rule="nonzero"/></clipPath><clipPath id="b3a7be720b"><path d="M 132.65625 240.605469 L 314.933594 171.324219 L 374.890625 329.066406 L 192.613281 398.347656 Z M 132.65625 240.605469 " clip-rule="nonzero"/></clipPath><clipPath id="339b59f71c"><path d="M 132.65625 240.605469 L 314.933594 171.324219 L 374.890625 329.066406 L 192.613281 398.347656 Z M 132.65625 240.605469 " clip-rule="nonzero"/></clipPath><clipPath id="6830da364c"><path d="M 132.65625 240.605469 L 314.933594 171.324219 L 374.890625 329.066406 L 192.613281 398.347656 Z M 132.65625 240.605469 " clip-rule="nonzero"/></clipPath><clipPath id="acaf46d47f"><path d="M 234 307 L 245 307 L 245 318 L 234 318 Z M 234 307 " clip-rule="nonzero"/></clipPath><clipPath id="47fb2631fa"><path d="M 132.65625 240.605469 L 314.933594 171.324219 L 374.890625 329.066406 L 192.613281 398.347656 Z M 132.65625 240.605469 " clip-rule="nonzero"/></clipPath><clipPath id="cf560ce77b"><path d="M 132.65625 240.605469 L 314.933594 171.324219 L 374.890625 329.066406 L 192.613281 398.347656 Z M 132.65625 240.605469 " clip-rule="nonzero"/></clipPath><clipPath id="36401957df"><path d="M 132.65625 240.605469 L 314.933594 171.324219 L 374.890625 329.066406 L 192.613281 398.347656 Z M 132.65625 240.605469 " clip-rule="nonzero"/></clipPath><clipPath id="861c4ffe43"><path d="M 247 299 L 259 299 L 259 310 L 247 310 Z M 247 299 " clip-rule="nonzero"/></clipPath><clipPath id="4d5e090e18"><path d="M 132.65625 240.605469 L 314.933594 171.324219 L 374.890625 329.066406 L 192.613281 398.347656 Z M 132.65625 240.605469 " clip-rule="nonzero"/></clipPath><clipPath id="6f6a24ceda"><path d="M 132.65625 240.605469 L 314.933594 171.324219 L 374.890625 329.066406 L 192.613281 398.347656 Z M 132.65625 240.605469 " clip-rule="nonzero"/></clipPath><clipPath id="cd9268885b"><path d="M 132.65625 240.605469 L 314.933594 171.324219 L 374.890625 329.066406 L 192.613281 398.347656 Z M 132.65625 240.605469 " clip-rule="nonzero"/></clipPath><clipPath id="3a48bec6e4"><path d="M 260 291 L 272 291 L 272 303 L 260 303 Z M 260 291 " clip-rule="nonzero"/></clipPath><clipPath id="6ac5ae9769"><path d="M 132.65625 240.605469 L 314.933594 171.324219 L 374.890625 329.066406 L 192.613281 398.347656 Z M 132.65625 240.605469 " clip-rule="nonzero"/></clipPath><clipPath id="e7f80303ec"><path d="M 132.65625 240.605469 L 314.933594 171.324219 L 374.890625 329.066406 L 192.613281 398.347656 Z M 132.65625 240.605469 " clip-rule="nonzero"/></clipPath><clipPath id="9420a39928"><path d="M 132.65625 240.605469 L 314.933594 171.324219 L 374.890625 329.066406 L 192.613281 398.347656 Z M 132.65625 240.605469 " clip-rule="nonzero"/></clipPath><clipPath id="89af87c164"><path d="M 273 283 L 285 283 L 285 295 L 273 295 Z M 273 283 " clip-rule="nonzero"/></clipPath><clipPath id="778dc3b8fb"><path d="M 132.65625 240.605469 L 314.933594 171.324219 L 374.890625 329.066406 L 192.613281 398.347656 Z M 132.65625 240.605469 " clip-rule="nonzero"/></clipPath><clipPath id="bb8efb2c3e"><path d="M 132.65625 240.605469 L 314.933594 171.324219 L 374.890625 329.066406 L 192.613281 398.347656 Z M 132.65625 240.605469 " clip-rule="nonzero"/></clipPath><clipPath id="ddac2b0f81"><path d="M 132.65625 240.605469 L 314.933594 171.324219 L 374.890625 329.066406 L 192.613281 398.347656 Z M 132.65625 240.605469 " clip-rule="nonzero"/></clipPath><clipPath id="af0d673426"><path d="M 287 276 L 298 276 L 298 287 L 287 287 Z M 287 276 " clip-rule="nonzero"/></clipPath><clipPath id="c62a6bbd88"><path d="M 132.65625 240.605469 L 314.933594 171.324219 L 374.890625 329.066406 L 192.613281 398.347656 Z M 132.65625 240.605469 " clip-rule="nonzero"/></clipPath><clipPath id="4767e72bca"><path d="M 132.65625 240.605469 L 314.933594 171.324219 L 374.890625 329.066406 L 192.613281 398.347656 Z M 132.65625 240.605469 " clip-rule="nonzero"/></clipPath><clipPath id="cf0f54294c"><path d="M 132.65625 240.605469 L 314.933594 171.324219 L 374.890625 329.066406 L 192.613281 398.347656 Z M 132.65625 240.605469 " clip-rule="nonzero"/></clipPath><clipPath id="2dca85854e"><path d="M 300 268 L 312 268 L 312 279 L 300 279 Z M 300 268 " clip-rule="nonzero"/></clipPath><clipPath id="13cebd53c1"><path d="M 132.65625 240.605469 L 314.933594 171.324219 L 374.890625 329.066406 L 192.613281 398.347656 Z M 132.65625 240.605469 " clip-rule="nonzero"/></clipPath><clipPath id="e6917de25f"><path d="M 132.65625 240.605469 L 314.933594 171.324219 L 374.890625 329.066406 L 192.613281 398.347656 Z M 132.65625 240.605469 " clip-rule="nonzero"/></clipPath><clipPath id="b21f845c89"><path d="M 132.65625 240.605469 L 314.933594 171.324219 L 374.890625 329.066406 L 192.613281 398.347656 Z M 132.65625 240.605469 " clip-rule="nonzero"/></clipPath><clipPath id="0a4a9a0952"><path d="M 255 340 L 267 340 L 267 352 L 255 352 Z M 255 340 " clip-rule="nonzero"/></clipPath><clipPath id="2780d10af1"><path d="M 132.65625 240.605469 L 314.933594 171.324219 L 374.890625 329.066406 L 192.613281 398.347656 Z M 132.65625 240.605469 " clip-rule="nonzero"/></clipPath><clipPath id="2e61debbb3"><path d="M 132.65625 240.605469 L 314.933594 171.324219 L 374.890625 329.066406 L 192.613281 398.347656 Z M 132.65625 240.605469 " clip-rule="nonzero"/></clipPath><clipPath id="87dd93ca5b"><path d="M 132.65625 240.605469 L 314.933594 171.324219 L 374.890625 329.066406 L 192.613281 398.347656 Z M 132.65625 240.605469 " clip-rule="nonzero"/></clipPath><clipPath id="35a6d8e6c1"><path d="M 269 332 L 280 332 L 280 344 L 269 344 Z M 269 332 " clip-rule="nonzero"/></clipPath><clipPath id="865f058104"><path d="M 132.65625 240.605469 L 314.933594 171.324219 L 374.890625 329.066406 L 192.613281 398.347656 Z M 132.65625 240.605469 " clip-rule="nonzero"/></clipPath><clipPath id="0d6b50d420"><path d="M 132.65625 240.605469 L 314.933594 171.324219 L 374.890625 329.066406 L 192.613281 398.347656 Z M 132.65625 240.605469 " clip-rule="nonzero"/></clipPath><clipPath id="358dda4966"><path d="M 132.65625 240.605469 L 314.933594 171.324219 L 374.890625 329.066406 L 192.613281 398.347656 Z M 132.65625 240.605469 " clip-rule="nonzero"/></clipPath><clipPath id="cb78158806"><path d="M 282 325 L 293 325 L 293 336 L 282 336 Z M 282 325 " clip-rule="nonzero"/></clipPath><clipPath id="473f7f74e5"><path d="M 132.65625 240.605469 L 314.933594 171.324219 L 374.890625 329.066406 L 192.613281 398.347656 Z M 132.65625 240.605469 " clip-rule="nonzero"/></clipPath><clipPath id="107f6413e2"><path d="M 132.65625 240.605469 L 314.933594 171.324219 L 374.890625 329.066406 L 192.613281 398.347656 Z M 132.65625 240.605469 " clip-rule="nonzero"/></clipPath><clipPath id="6d44f9ec83"><path d="M 132.65625 240.605469 L 314.933594 171.324219 L 374.890625 329.066406 L 192.613281 398.347656 Z M 132.65625 240.605469 " clip-rule="nonzero"/></clipPath><clipPath id="b7047be92a"><path d="M 295 317 L 307 317 L 307 328 L 295 328 Z M 295 317 " clip-rule="nonzero"/></clipPath><clipPath id="e163fe9349"><path d="M 132.65625 240.605469 L 314.933594 171.324219 L 374.890625 329.066406 L 192.613281 398.347656 Z M 132.65625 240.605469 " clip-rule="nonzero"/></clipPath><clipPath id="3b9e854a74"><path d="M 132.65625 240.605469 L 314.933594 171.324219 L 374.890625 329.066406 L 192.613281 398.347656 Z M 132.65625 240.605469 " clip-rule="nonzero"/></clipPath><clipPath id="ffbc3b503e"><path d="M 132.65625 240.605469 L 314.933594 171.324219 L 374.890625 329.066406 L 192.613281 398.347656 Z M 132.65625 240.605469 " clip-rule="nonzero"/></clipPath><clipPath id="d15c5e47a9"><path d="M 308 309 L 320 309 L 320 320 L 308 320 Z M 308 309 " clip-rule="nonzero"/></clipPath><clipPath id="ba46f8a52f"><path d="M 132.65625 240.605469 L 314.933594 171.324219 L 374.890625 329.066406 L 192.613281 398.347656 Z M 132.65625 240.605469 " clip-rule="nonzero"/></clipPath><clipPath id="8d4c26af00"><path d="M 132.65625 240.605469 L 314.933594 171.324219 L 374.890625 329.066406 L 192.613281 398.347656 Z M 132.65625 240.605469 " clip-rule="nonzero"/></clipPath><clipPath id="4f788cc0f1"><path d="M 132.65625 240.605469 L 314.933594 171.324219 L 374.890625 329.066406 L 192.613281 398.347656 Z M 132.65625 240.605469 " clip-rule="nonzero"/></clipPath><clipPath id="80f5a7f107"><path d="M 322 301 L 333 301 L 333 312 L 322 312 Z M 322 301 " clip-rule="nonzero"/></clipPath><clipPath id="f55e8e33f5"><path d="M 132.65625 240.605469 L 314.933594 171.324219 L 374.890625 329.066406 L 192.613281 398.347656 Z M 132.65625 240.605469 " clip-rule="nonzero"/></clipPath><clipPath id="e0eb283c44"><path d="M 132.65625 240.605469 L 314.933594 171.324219 L 374.890625 329.066406 L 192.613281 398.347656 Z M 132.65625 240.605469 " clip-rule="nonzero"/></clipPath><clipPath id="2dd573c9ac"><path d="M 132.65625 240.605469 L 314.933594 171.324219 L 374.890625 329.066406 L 192.613281 398.347656 Z M 132.65625 240.605469 " clip-rule="nonzero"/></clipPath></defs><path fill="#000000" d="M 4.910156 77.496094 L 4.910156 132.480469 C 4.910156 133.007812 4.960938 133.535156 5.066406 134.054688 C 5.167969 134.574219 5.324219 135.078125 5.527344 135.566406 C 5.730469 136.058594 5.980469 136.523438 6.277344 136.964844 C 6.574219 137.402344 6.910156 137.8125 7.289062 138.1875 C 7.667969 138.5625 8.078125 138.894531 8.519531 139.191406 C 8.964844 139.484375 9.433594 139.734375 9.925781 139.9375 C 10.417969 140.140625 10.925781 140.292969 11.449219 140.394531 C 11.972656 140.5 12.503906 140.550781 13.035156 140.550781 L 35.484375 140.550781 C 36.015625 140.550781 36.546875 140.5 37.070312 140.394531 C 37.59375 140.292969 38.101562 140.140625 38.59375 139.9375 C 39.085938 139.734375 39.554688 139.484375 40 139.191406 C 40.441406 138.894531 40.855469 138.5625 41.230469 138.1875 C 41.609375 137.8125 41.945312 137.402344 42.242188 136.964844 C 42.539062 136.523438 42.789062 136.058594 42.992188 135.566406 C 43.195312 135.078125 43.351562 134.574219 43.457031 134.054688 C 43.558594 133.535156 43.613281 133.007812 43.613281 132.480469 L 43.613281 77.496094 C 43.613281 76.964844 43.558594 76.441406 43.457031 75.921875 C 43.351562 75.402344 43.195312 74.894531 42.992188 74.40625 C 42.789062 73.917969 42.539062 73.453125 42.242188 73.011719 C 41.945312 72.570312 41.609375 72.164062 41.230469 71.789062 C 40.855469 71.414062 40.441406 71.078125 40 70.785156 C 39.554688 70.488281 39.085938 70.242188 38.59375 70.039062 C 38.101562 69.835938 37.59375 69.683594 37.070312 69.578125 C 36.546875 69.476562 36.015625 69.421875 35.484375 69.421875 L 13.035156 69.421875 C 12.503906 69.421875 11.972656 69.476562 11.449219 69.578125 C 10.925781 69.683594 10.417969 69.835938 9.925781 70.039062 C 9.433594 70.242188 8.964844 70.488281 8.519531 70.785156 C 8.078125 71.078125 7.667969 71.414062 7.289062 71.789062 C 6.910156 72.164062 6.574219 72.570312 6.277344 73.011719 C 5.980469 73.453125 5.730469 73.917969 5.527344 74.40625 C 5.324219 74.894531 5.167969 75.398438 5.066406 75.921875 C 4.960938 76.441406 4.910156 76.964844 4.910156 77.496094 " fill-opacity="1" fill-rule="evenodd"/><g clip-path="url(#309a88dc79)"><path fill="#000000" d="M 13.195312 131.898438 L 366.09375 131.898438 C 366.550781 131.898438 367.007812 131.941406 367.457031 132.03125 C 367.910156 132.121094 368.347656 132.253906 368.769531 132.429688 C 369.195312 132.605469 369.597656 132.820312 369.980469 133.078125 C 370.363281 133.332031 370.71875 133.621094 371.042969 133.945312 C 371.367188 134.273438 371.65625 134.625 371.914062 135.007812 C 372.167969 135.390625 372.382812 135.792969 372.558594 136.214844 C 372.734375 136.640625 372.867188 137.078125 372.957031 137.527344 C 373.046875 137.980469 373.09375 138.433594 373.09375 138.894531 L 373.09375 343.875 C 373.09375 344.332031 373.046875 344.789062 372.957031 345.238281 C 372.867188 345.6875 372.734375 346.125 372.558594 346.550781 C 372.382812 346.972656 372.167969 347.378906 371.914062 347.757812 C 371.65625 348.140625 371.367188 348.496094 371.042969 348.820312 C 370.71875 349.144531 370.363281 349.433594 369.980469 349.6875 C 369.597656 349.945312 369.195312 350.160156 368.769531 350.335938 C 368.347656 350.511719 367.910156 350.644531 367.457031 350.734375 C 367.007812 350.824219 366.550781 350.867188 366.09375 350.867188 L 13.195312 350.867188 C 12.734375 350.867188 12.28125 350.824219 11.828125 350.734375 C 11.378906 350.644531 10.941406 350.511719 10.515625 350.335938 C 10.09375 350.160156 9.6875 349.945312 9.304688 349.6875 C 8.925781 349.433594 8.570312 349.144531 8.246094 348.820312 C 7.921875 348.496094 7.628906 348.140625 7.375 347.757812 C 7.121094 347.378906 6.902344 346.972656 6.726562 346.550781 C 6.550781 346.125 6.417969 345.6875 6.328125 345.238281 C 6.238281 344.789062 6.195312 344.332031 6.195312 343.875 L 6.195312 138.894531 C 6.195312 138.433594 6.238281 137.980469 6.328125 137.527344 C 6.417969 137.078125 6.550781 136.640625 6.726562 136.214844 C 6.902344 135.792969 7.121094 135.390625 7.375 135.007812 C 7.628906 134.625 7.921875 134.273438 8.246094 133.945312 C 8.570312 133.621094 8.925781 133.332031 9.304688 133.078125 C 9.6875 132.820312 10.09375 132.605469 10.515625 132.429688 C 10.941406 132.253906 11.378906 132.121094 11.828125 132.03125 C 12.28125 131.941406 12.734375 131.898438 13.195312 131.898438 " fill-opacity="1" fill-rule="evenodd"/></g><path fill="#000000" d="M 4.480469 107.246094 L 374.796875 107.246094 L 374.796875 145.679688 L 4.480469 145.679688 Z M 4.480469 107.246094 " fill-opacity="1" fill-rule="evenodd"/><path fill="#ffffff" d="M 43.757812 143.53125 L 79.1875 143.53125 L 97.835938 109.390625 L 62.40625 109.390625 Z M 43.757812 143.53125 " fill-opacity="1" fill-rule="evenodd"/><path fill="#ffffff" d="M 134.484375 143.53125 L 169.917969 143.53125 L 188.566406 109.390625 L 153.132812 109.390625 Z M 134.484375 143.53125 " fill-opacity="1" fill-rule="evenodd"/><path fill="#ffffff" d="M 225.214844 143.53125 L 260.648438 143.53125 L 279.296875 109.390625 L 243.863281 109.390625 Z M 225.214844 143.53125 " fill-opacity="1" fill-rule="evenodd"/><path fill="#ffffff" d="M 315.945312 143.53125 L 351.375 143.53125 L 370.027344 109.390625 L 334.59375 109.390625 Z M 315.945312 143.53125 " fill-opacity="1" fill-rule="evenodd"/><g clip-path="url(#ba0328f128)"><path fill="#000000" d="M 367.644531 23.867188 L 0.152344 69.28125 L 4.933594 107.421875 L 372.425781 62.007812 Z M 367.644531 23.867188 " fill-opacity="1" fill-rule="evenodd"/></g><path fill="#ffffff" d="M 367.476562 60.453125 L 332.316406 64.796875 L 309.566406 33.207031 L 344.726562 28.863281 Z M 367.476562 60.453125 " fill-opacity="1" fill-rule="evenodd"/><path fill="#ffffff" d="M 277.441406 71.578125 L 242.28125 75.925781 L 219.53125 44.332031 L 254.691406 39.988281 Z M 277.441406 71.578125 " fill-opacity="1" fill-rule="evenodd"/><path fill="#ffffff" d="M 187.410156 82.707031 L 152.246094 87.050781 L 129.496094 55.460938 L 164.65625 51.113281 Z M 187.410156 82.707031 " fill-opacity="1" fill-rule="evenodd"/><path fill="#ffffff" d="M 97.375 93.832031 L 62.210938 98.175781 L 39.460938 66.585938 L 74.621094 62.242188 Z M 97.375 93.832031 " fill-opacity="1" fill-rule="evenodd"/><path stroke-linecap="butt" transform="matrix(0.537683, -0.0664458, 0.0669067, 0.533978, -47.096791, 2.37841)" fill-opacity="1" fill="#ffffff" fill-rule="evenodd" stroke-linejoin="miter" d="M 125.711999 168.08185 C 125.717984 169.026279 125.630963 169.959135 125.458093 170.881307 C 125.277172 171.809794 125.012193 172.71319 124.656899 173.583401 C 124.301605 174.453612 123.864046 175.284325 123.344223 176.07554 C 122.825296 176.859551 122.233051 177.590547 121.568385 178.261323 C 120.904616 178.924895 120.182733 179.530029 119.398273 180.054221 C 118.613813 180.578414 117.788237 181.024336 116.922443 181.384785 C 116.048598 181.751547 115.150635 182.020209 114.226762 182.205177 C 113.302889 182.390145 112.368311 182.485996 111.423923 182.485527 C 110.479535 182.485057 109.5468 182.390938 108.624823 182.210373 C 107.696587 182.021714 106.800571 181.749279 105.930517 181.384975 C 105.060463 181.020671 104.23604 180.581576 103.451888 180.052393 C 102.667735 179.523209 101.942626 178.928218 101.277457 178.260217 C 100.620338 177.585903 100.027625 176.861079 99.508263 176.07223 C 98.988005 175.290584 98.54646 174.46021 98.190782 173.581997 C 97.834208 172.710989 97.568863 171.80744 97.392954 170.885759 C 97.217941 169.956874 97.130571 169.024265 97.138895 168.081616 C 97.132911 167.137188 97.212777 166.203442 97.393698 165.274956 C 97.566569 164.352783 97.838702 163.450277 98.193996 162.580066 C 98.550186 161.702651 98.987745 160.871938 99.506672 160.087927 C 100.026495 159.296712 100.617844 158.57292 101.28251 157.902144 C 101.947175 157.231368 102.668161 156.633438 103.452622 156.109246 C 104.229928 155.584163 105.062657 155.139131 105.929348 154.771478 C 106.802297 154.411919 107.701156 154.136054 108.625029 153.951086 C 109.548902 153.766118 110.482584 153.677471 111.426972 153.67794 C 112.364206 153.677519 113.304991 153.765325 114.226072 153.953094 C 115.14805 154.133659 116.050323 154.414188 116.921274 154.771288 C 117.791328 155.135592 118.614854 155.58189 119.399903 156.10387 C 120.184056 156.633054 120.901114 157.234358 121.566283 157.902359 C 122.231453 158.57036 122.82327 159.302388 123.343528 160.084034 C 123.86289 160.872883 124.304435 161.703257 124.653855 162.573376 C 125.009532 163.451588 125.275774 164.347932 125.457941 165.277708 C 125.63385 166.199389 125.720323 167.139202 125.711999 168.08185 Z M 125.711999 168.08185 " stroke="#ffffff" stroke-width="4" stroke-opacity="1" stroke-miterlimit="4"/><path stroke-linecap="butt" transform="matrix(0.781073, 0, 0, 0.78043, -103.254363, -196.935501)" fill="none" stroke-linejoin="miter" d="M 137.851848 439.068568 L 612.049391 439.068568 " stroke="#cccccc" stroke-width="0.692" stroke-opacity="1" stroke-miterlimit="4"/><path stroke-linecap="butt" transform="matrix(0.54183, 0, 0, 0.538098, -35.443971, -45.212179)" fill="none" stroke-linejoin="miter" d="M 104.122324 618.347308 L 726.701102 618.347308 " stroke="#ffffff" stroke-width="4" stroke-opacity="1" stroke-miterlimit="4"/><path stroke-linecap="butt" transform="matrix(0.54183, 0, 0, 0.538098, -46.704698, -45.212179)" fill="none" stroke-linejoin="miter" d="M 307.957963 713.147287 L 307.957963 619.320062 " stroke="#ffffff" stroke-width="4" stroke-opacity="1" stroke-miterlimit="4"/><path stroke-linecap="butt" transform="matrix(0.54183, 0, 0, 0.538098, -46.704698, -45.212179)" fill="none" stroke-linejoin="miter" d="M 564.430976 713.147287 L 564.430976 619.320062 " stroke="#ffffff" stroke-width="4" stroke-opacity="1" stroke-miterlimit="4"/><path stroke-linecap="butt" transform="matrix(0.54183, 0, 0, 0.538098, -35.443971, -45.212179)" fill="none" stroke-linejoin="miter" d="M 104.122324 524.491046 L 726.701102 524.491046 " stroke="#ffffff" stroke-width="4" stroke-opacity="1" stroke-miterlimit="4"/><path stroke-linecap="butt" transform="matrix(0.54183, 0, 0, 0.538098, -35.443971, -45.212179)" fill="none" stroke-linejoin="miter" d="M 104.122324 430.627525 L 726.701102 430.627525 " stroke="#ffffff" stroke-width="4" stroke-opacity="1" stroke-miterlimit="4"/><g clip-path="url(#a2ed2de10f)"><g clip-path="url(#5511f18311)"><g clip-path="url(#64fe2b7853)"><g clip-path="url(#3679aebe36)"><path fill="#e44032" d="M 232.972656 202.503906 L 159.53125 297.230469 L 159.878906 297.480469 C 166.78125 302.890625 168.183594 312.675781 162.980469 319.386719 L 162.71875 319.699219 L 201.566406 350.050781 L 201.824219 349.742188 C 207.027344 343.027344 216.839844 342.003906 223.777344 347.402344 L 224.125 347.648438 L 297.582031 252.960938 L 297.234375 252.714844 C 290.332031 247.300781 288.929688 237.519531 294.132812 230.804688 L 294.394531 230.492188 L 255.5 200.117188 L 255.238281 200.429688 C 250.035156 207.140625 240.222656 208.164062 233.285156 202.769531 Z M 232.972656 202.503906 " fill-opacity="1" fill-rule="nonzero"/></g></g></g></g><g clip-path="url(#6e8654a4b5)"><g clip-path="url(#8049a5de8b)"><g clip-path="url(#3a84408e60)"><g clip-path="url(#5d49f8f150)"><path fill="#ffffff" d="M 223.570312 341.644531 L 223.144531 341.300781 C 219.3125 338.316406 214.304688 337.554688 209.777344 339.277344 C 207.382812 340.1875 205.316406 341.734375 203.765625 343.757812 L 203.4375 344.222656 L 203.269531 344.117188 L 168.761719 317.191406 L 169.089844 316.726562 C 171.347656 313.796875 172.367188 310.152344 171.933594 306.46875 C 171.46875 302.800781 169.632812 299.523438 166.742188 297.238281 L 166.316406 296.894531 L 233.976562 209.691406 L 234.402344 210.039062 C 238.234375 213.023438 243.246094 213.78125 247.773438 212.058594 C 250.167969 211.152344 252.234375 209.605469 253.78125 207.578125 L 254.113281 207.113281 L 254.277344 207.21875 L 288.722656 234.085938 L 288.394531 234.550781 C 286.136719 237.480469 285.117188 241.125 285.550781 244.808594 C 286.015625 248.476562 287.851562 251.753906 290.742188 254.039062 L 291.167969 254.382812 L 291.066406 254.550781 Z M 209.597656 338.921875 C 214.273438 337.144531 219.421875 337.9375 223.371094 341.003906 L 223.5 341.121094 L 290.699219 254.476562 L 290.570312 254.359375 C 287.578125 252.027344 285.664062 248.65625 285.1875 244.859375 C 284.714844 241.066406 285.742188 237.335938 288.097656 234.324219 L 288.214844 234.195312 L 254.234375 207.660156 L 254.117188 207.789062 C 252.507812 209.878906 250.367188 211.457031 247.898438 212.394531 C 243.222656 214.171875 238.074219 213.378906 234.128906 210.3125 L 234 210.191406 L 166.847656 296.859375 L 166.980469 296.980469 C 169.972656 299.308594 171.886719 302.683594 172.359375 306.476562 C 172.832031 310.273438 171.804688 314.003906 169.453125 317.011719 L 169.332031 317.140625 L 203.316406 343.679688 L 203.433594 343.546875 C 205.027344 341.421875 207.167969 339.84375 209.597656 338.921875 Z M 209.597656 338.921875 " fill-opacity="1" fill-rule="nonzero"/></g></g></g></g><g clip-path="url(#07f761294c)"><g clip-path="url(#ba8c9a97e0)"><g clip-path="url(#aadf890ed0)"><g clip-path="url(#c139b11471)"><path fill="#ffffff" d="M 198.050781 313.753906 L 198 313.730469 C 194.234375 310.808594 193.375 305.550781 196.507812 301.484375 C 198.457031 298.96875 200.417969 298.136719 202.589844 297.863281 L 203.300781 301.398438 C 201.570312 301.71875 200.183594 302.289062 199.179688 303.640625 C 197.453125 305.863281 198.070312 308.925781 200.304688 310.699219 L 200.355469 310.722656 C 202.625 312.480469 205.75 312.390625 207.5 310.121094 C 208.695312 308.609375 208.800781 307.214844 208.660156 305.40625 L 211.960938 305 C 212.367188 307.507812 212.109375 309.71875 210.101562 312.300781 C 207.097656 316.152344 201.832031 316.714844 198.050781 313.753906 Z M 198.050781 313.753906 " fill-opacity="1" fill-rule="nonzero"/></g></g></g></g><g clip-path="url(#0bc4499d26)"><g clip-path="url(#038291d29c)"><g clip-path="url(#7891557d21)"><g clip-path="url(#827683c1ea)"><path fill="#ffffff" d="M 202.792969 293.851562 L 205.050781 290.921875 L 218.300781 301.277344 L 216.042969 304.207031 Z M 202.792969 293.851562 " fill-opacity="1" fill-rule="nonzero"/></g></g></g></g><g clip-path="url(#9825510f5d)"><g clip-path="url(#150e19abb2)"><g clip-path="url(#862250f96f)"><g clip-path="url(#4ae496171d)"><path fill="#ffffff" d="M 207.628906 287.617188 L 209.722656 284.917969 L 222.675781 285.070312 L 214.523438 278.695312 L 216.757812 275.816406 L 230.007812 286.171875 L 228.078125 288.640625 L 214.664062 288.496094 L 223.101562 295.058594 L 220.867188 297.9375 Z M 207.628906 287.617188 " fill-opacity="1" fill-rule="nonzero"/></g></g></g></g><g clip-path="url(#00e05d97ba)"><g clip-path="url(#36cf4f7034)"><g clip-path="url(#2661939127)"><g clip-path="url(#425c9d80c4)"><path fill="#ffffff" d="M 219.214844 272.640625 L 226.960938 262.636719 L 229.542969 264.65625 L 224.019531 271.746094 L 226.714844 273.851562 L 231.550781 267.617188 L 234.132812 269.636719 L 229.292969 275.871094 L 232.054688 278.035156 L 237.625 270.847656 L 240.207031 272.867188 L 232.363281 282.953125 Z M 219.214844 272.640625 " fill-opacity="1" fill-rule="nonzero"/></g></g></g></g><g clip-path="url(#35f2d6963f)"><g clip-path="url(#d5982cd884)"><g clip-path="url(#0ef879eb39)"><g clip-path="url(#de687558b9)"><path fill="#ffffff" d="M 229.066406 259.976562 L 231.503906 256.851562 L 239.8125 257.753906 L 236.910156 249.890625 L 239.34375 246.765625 L 252.59375 257.121094 L 250.359375 260 L 241.730469 253.261719 L 244.496094 261.425781 L 244.4375 261.492188 L 235.964844 260.820312 L 244.542969 267.539062 L 242.347656 270.40625 Z M 229.066406 259.976562 " fill-opacity="1" fill-rule="nonzero"/></g></g></g></g><g clip-path="url(#34883b8a02)"><g clip-path="url(#71b9e59c6f)"><g clip-path="url(#fad49ce7f7)"><g clip-path="url(#0c56c368d5)"><path fill="#ffffff" d="M 245.246094 238.898438 L 247.339844 236.199219 L 265.066406 240.921875 L 262.6875 243.984375 L 258.777344 242.890625 L 254.410156 248.480469 L 256.433594 252.027344 L 254.113281 255.023438 Z M 255.453125 241.914062 L 249.785156 240.304688 L 252.695312 245.414062 Z M 255.453125 241.914062 " fill-opacity="1" fill-rule="nonzero"/></g></g></g></g><g clip-path="url(#ae9aaf46cd)"><g clip-path="url(#cfbf0992cb)"><g clip-path="url(#99be4291d0)"><g clip-path="url(#de5a08432d)"><path fill="#ffffff" d="M 179.097656 313.007812 L 178.296875 312.675781 L 178.570312 312.066406 L 179.75 312.507812 L 180.175781 312.851562 L 177.375 316.453125 L 176.765625 315.964844 Z M 179.097656 313.007812 " fill-opacity="1" fill-rule="nonzero"/></g></g></g></g><g clip-path="url(#169fa59b5c)"><g clip-path="url(#c07c5f0055)"><g clip-path="url(#8366358160)"><g clip-path="url(#1a1ff058d6)"><path fill="#ffffff" d="M 179.570312 317.351562 L 181.597656 317.257812 C 182.433594 317.238281 182.777344 317.148438 183.027344 316.800781 C 183.308594 316.4375 183.207031 316.054688 182.894531 315.792969 C 182.585938 315.53125 182.210938 315.546875 181.632812 315.679688 L 181.453125 314.988281 C 182.167969 314.757812 182.714844 314.761719 183.371094 315.273438 C 184.082031 315.808594 184.230469 316.640625 183.707031 317.261719 C 183.28125 317.804688 182.722656 317.886719 181.691406 317.941406 L 180.480469 317.980469 L 182.171875 319.324219 L 181.746094 319.867188 L 179.167969 317.84375 Z M 179.570312 317.351562 " fill-opacity="1" fill-rule="nonzero"/></g></g></g></g><g clip-path="url(#9ceb703b4e)"><g clip-path="url(#575a91c6ee)"><g clip-path="url(#ccb665b11e)"><g clip-path="url(#4169f59c99)"><path fill="#ffffff" d="M 183.71875 320.511719 L 184.488281 320.429688 C 184.511719 320.929688 184.664062 321.335938 185.078125 321.644531 C 185.4375 321.929688 185.851562 321.902344 186.109375 321.589844 C 186.394531 321.226562 186.226562 320.785156 185.699219 320.394531 L 185.4375 320.152344 L 185.644531 319.695312 L 187.390625 319.414062 L 185.828125 318.1875 L 186.253906 317.644531 L 188.640625 319.488281 L 188.273438 319.964844 L 186.476562 320.226562 C 186.960938 320.71875 187.261719 321.40625 186.753906 322.0625 C 186.246094 322.722656 185.351562 322.808594 184.617188 322.199219 C 184.007812 321.710938 183.734375 321.097656 183.71875 320.511719 Z M 183.71875 320.511719 " fill-opacity="1" fill-rule="nonzero"/></g></g></g></g><g clip-path="url(#7ae85ae9a8)"><g clip-path="url(#9f1f50c0fa)"><g clip-path="url(#6423141f1d)"><g clip-path="url(#4ecad0e36c)"><path fill="#ffffff" d="M 189.984375 325.023438 L 188.179688 323.59375 L 188.394531 323.046875 L 192.210938 322.230469 L 192.753906 322.660156 L 190.96875 324.945312 L 191.496094 325.335938 L 191.105469 325.863281 L 190.578125 325.472656 L 189.953125 326.261719 L 189.34375 325.773438 Z M 190.414062 324.480469 L 191.511719 323.046875 L 189.210938 323.539062 Z M 190.414062 324.480469 " fill-opacity="1" fill-rule="nonzero"/></g></g></g></g><g clip-path="url(#e3b89097e0)"><g clip-path="url(#80f243f1b5)"><g clip-path="url(#e6f602870c)"><g clip-path="url(#4e0be8286d)"><path fill="#ffffff" d="M 192.40625 327.398438 L 193.148438 327.246094 C 193.207031 327.730469 193.398438 328.121094 193.746094 328.371094 C 194.171875 328.714844 194.65625 328.660156 194.941406 328.296875 C 195.222656 327.9375 195.09375 327.480469 194.667969 327.132812 C 194.421875 326.929688 194.128906 326.832031 193.902344 326.789062 L 193.730469 326.222656 L 195.191406 324.523438 L 197.34375 326.199219 L 196.917969 326.742188 L 195.308594 325.496094 L 194.59375 326.273438 C 194.832031 326.351562 194.984375 326.421875 195.230469 326.621094 C 195.9375 327.15625 196.199219 327.945312 195.605469 328.722656 C 195.039062 329.445312 194.144531 329.53125 193.355469 328.898438 C 192.71875 328.550781 192.457031 327.972656 192.40625 327.398438 Z M 192.40625 327.398438 " fill-opacity="1" fill-rule="nonzero"/></g></g></g></g><g clip-path="url(#7b74b2a68c)"><g clip-path="url(#c61fa696f6)"><g clip-path="url(#953f04d23e)"><g clip-path="url(#3eb9fa6b47)"><path fill="#ffffff" d="M 196.933594 331.21875 C 196.878906 330.734375 197.015625 330.214844 197.546875 329.503906 C 198.398438 328.421875 199.578125 327.972656 200.597656 328.769531 C 201.074219 329.136719 201.265625 329.53125 201.375 330.039062 L 200.660156 330.265625 C 200.558594 329.882812 200.445312 329.589844 200.136719 329.324219 C 199.59375 328.898438 198.929688 329.148438 198.371094 329.785156 C 198.695312 329.746094 199.082031 329.769531 199.492188 330.078125 C 200.203125 330.609375 200.4375 331.453125 199.871094 332.175781 C 199.300781 332.898438 198.34375 332.925781 197.582031 332.367188 C 197.207031 332.046875 197.015625 331.652344 196.933594 331.21875 Z M 199.277344 331.722656 C 199.558594 331.363281 199.503906 330.875 199.023438 330.507812 C 198.597656 330.164062 198.078125 330.234375 197.832031 330.582031 C 197.546875 330.945312 197.621094 331.464844 198.082031 331.796875 C 198.523438 332.179688 198.992188 332.085938 199.277344 331.722656 Z M 199.277344 331.722656 " fill-opacity="1" fill-rule="nonzero"/></g></g></g></g><g clip-path="url(#249178cf6a)"><g clip-path="url(#265dee2660)"><g clip-path="url(#c31cff2315)"><g clip-path="url(#a4d272af47)"><path fill="#ffffff" d="M 204.769531 332.976562 L 202.976562 331.585938 L 203.402344 331.042969 L 205.917969 333.003906 L 205.550781 333.484375 L 201.523438 335.308594 L 200.816406 334.777344 Z M 204.769531 332.976562 " fill-opacity="1" fill-rule="nonzero"/></g></g></g></g><g clip-path="url(#b055baf948)"><g clip-path="url(#6d6dbc12c2)"><g clip-path="url(#488910215d)"><g clip-path="url(#60999efa30)"><path fill="#ffffff" d="M 279.921875 238.320312 L 280.722656 238.652344 L 280.449219 239.261719 L 279.269531 238.820312 L 278.84375 238.476562 L 281.648438 234.875 L 282.253906 235.363281 Z M 279.921875 238.320312 " fill-opacity="1" fill-rule="nonzero"/></g></g></g></g><g clip-path="url(#7be45f6688)"><g clip-path="url(#8433b314b6)"><g clip-path="url(#07c70953bb)"><g clip-path="url(#5831d04204)"><path fill="#ffffff" d="M 279.449219 233.976562 L 277.421875 234.070312 C 276.585938 234.089844 276.242188 234.179688 275.996094 234.527344 C 275.710938 234.890625 275.8125 235.273438 276.125 235.535156 C 276.433594 235.796875 276.808594 235.78125 277.390625 235.648438 L 277.566406 236.339844 C 276.855469 236.570312 276.304688 236.566406 275.648438 236.054688 C 274.9375 235.519531 274.792969 234.6875 275.3125 234.066406 C 275.738281 233.523438 276.296875 233.441406 277.332031 233.386719 L 278.539062 233.347656 L 276.847656 232.003906 L 277.273438 231.460938 L 279.855469 233.484375 Z M 279.449219 233.976562 " fill-opacity="1" fill-rule="nonzero"/></g></g></g></g><g clip-path="url(#e77c190277)"><g clip-path="url(#835299a771)"><g clip-path="url(#62c7c31f2f)"><g clip-path="url(#4584eec824)"><path fill="#ffffff" d="M 275.261719 230.832031 L 274.492188 230.910156 C 274.472656 230.414062 274.316406 230.007812 273.90625 229.699219 C 273.542969 229.414062 273.132812 229.441406 272.871094 229.753906 C 272.589844 230.113281 272.757812 230.558594 273.285156 230.949219 L 273.582031 231.175781 L 273.375 231.632812 L 271.628906 231.914062 L 273.191406 233.140625 L 272.765625 233.683594 L 270.378906 231.839844 L 270.746094 231.363281 L 272.542969 231.101562 C 272.0625 230.609375 271.757812 229.921875 272.265625 229.265625 C 272.773438 228.605469 273.667969 228.519531 274.40625 229.128906 C 275.011719 229.617188 275.25 230.242188 275.261719 230.832031 Z M 275.261719 230.832031 " fill-opacity="1" fill-rule="nonzero"/></g></g></g></g><g clip-path="url(#effe65d75d)"><g clip-path="url(#9ade850953)"><g clip-path="url(#e6e3e8a721)"><g clip-path="url(#709f3d294b)"><path fill="#ffffff" d="M 268.996094 226.320312 L 270.804688 227.746094 L 270.589844 228.292969 L 266.769531 229.109375 L 266.230469 228.683594 L 268.015625 226.398438 L 267.488281 226.007812 L 267.875 225.476562 L 268.40625 225.867188 L 269.03125 225.082031 L 269.640625 225.570312 Z M 268.609375 226.847656 L 267.507812 228.28125 L 269.808594 227.789062 Z M 268.609375 226.847656 " fill-opacity="1" fill-rule="nonzero"/></g></g></g></g><g clip-path="url(#6886c0b946)"><g clip-path="url(#9eb2333d1b)"><g clip-path="url(#fef7005249)"><g clip-path="url(#a8a93525dd)"><path fill="#ffffff" d="M 266.613281 223.929688 L 265.871094 224.082031 C 265.8125 223.597656 265.621094 223.207031 265.273438 222.957031 C 264.847656 222.613281 264.363281 222.667969 264.082031 223.03125 C 263.796875 223.390625 263.929688 223.847656 264.355469 224.195312 C 264.601562 224.398438 264.890625 224.496094 265.117188 224.539062 L 265.292969 225.105469 L 263.816406 226.765625 L 261.660156 225.089844 L 262.085938 224.550781 L 263.699219 225.796875 L 264.414062 225.015625 C 264.175781 224.941406 264.019531 224.871094 263.777344 224.667969 C 263.066406 224.132812 262.808594 223.34375 263.398438 222.570312 C 263.96875 221.847656 264.863281 221.761719 265.648438 222.390625 C 266.265625 222.792969 266.527344 223.367188 266.613281 223.929688 Z M 266.613281 223.929688 " fill-opacity="1" fill-rule="nonzero"/></g></g></g></g><g clip-path="url(#d8ba0a4233)"><g clip-path="url(#cf20c8c86a)"><g clip-path="url(#98114f128d)"><g clip-path="url(#fd1ec52eee)"><path fill="#ffffff" d="M 262.046875 220.125 C 262.105469 220.609375 261.964844 221.128906 261.433594 221.835938 C 260.582031 222.921875 259.40625 223.371094 258.386719 222.574219 C 257.910156 222.203125 257.71875 221.8125 257.609375 221.304688 L 258.320312 221.074219 C 258.425781 221.457031 258.539062 221.753906 258.847656 222.015625 C 259.390625 222.445312 260.054688 222.191406 260.613281 221.558594 C 260.289062 221.59375 259.902344 221.574219 259.492188 221.265625 C 258.78125 220.730469 258.546875 219.890625 259.113281 219.167969 C 259.683594 218.445312 260.640625 218.417969 261.402344 218.972656 C 261.777344 219.296875 262.003906 219.675781 262.046875 220.125 Z M 259.742188 219.605469 C 259.460938 219.964844 259.519531 220.453125 259.996094 220.820312 C 260.421875 221.164062 260.941406 221.09375 261.1875 220.746094 C 261.472656 220.382812 261.402344 219.863281 260.9375 219.53125 C 260.496094 219.148438 260.015625 219.207031 259.742188 219.605469 Z M 259.742188 219.605469 " fill-opacity="1" fill-rule="nonzero"/></g></g></g></g><g clip-path="url(#c8e767039c)"><g clip-path="url(#c2cb35f637)"><g clip-path="url(#300c030787)"><g clip-path="url(#dceb8b37f0)"><path fill="#ffffff" d="M 254.214844 218.363281 L 256.007812 219.753906 L 255.582031 220.296875 L 253.066406 218.335938 L 253.433594 217.859375 L 257.460938 216.03125 L 258.167969 216.566406 Z M 254.214844 218.363281 " fill-opacity="1" fill-rule="nonzero"/></g></g></g></g><g clip-path="url(#b97820faac)"><g clip-path="url(#46b5a3f6a4)"><g clip-path="url(#64c70dca6b)"><g clip-path="url(#d97329fc61)"><path fill="#ffffff" d="M 184.511719 290.105469 L 188.136719 290.882812 L 190.820312 288.296875 L 191.25 291.980469 L 194.546875 293.773438 L 191.117188 295.289062 L 190.488281 298.953125 L 187.976562 296.230469 L 184.28125 296.703125 L 186.125 293.464844 Z M 184.511719 290.105469 " fill-opacity="1" fill-rule="nonzero"/></g></g></g></g><g clip-path="url(#eeedcdd4f2)"><g clip-path="url(#51ea3f6eaf)"><g clip-path="url(#dc1b817f2c)"><g clip-path="url(#d475d57172)"><path fill="#ffffff" d="M 194.101562 277.75 L 197.75 278.476562 L 200.433594 275.890625 L 200.878906 279.613281 L 204.160156 281.367188 L 200.746094 282.917969 L 200.113281 286.582031 L 197.589844 283.820312 L 193.90625 284.332031 L 195.753906 281.09375 Z M 194.101562 277.75 " fill-opacity="1" fill-rule="nonzero"/></g></g></g></g><g clip-path="url(#aae04ac1de)"><g clip-path="url(#33b8e4cf69)"><g clip-path="url(#3b3e1002ba)"><g clip-path="url(#07164e0e8b)"><path fill="#ffffff" d="M 203.265625 265.933594 L 206.925781 266.699219 L 209.613281 264.113281 L 210.003906 267.8125 L 213.285156 269.566406 L 209.910156 271.105469 L 209.242188 274.785156 L 206.71875 272.023438 L 203.035156 272.535156 L 204.878906 269.296875 Z M 203.265625 265.933594 " fill-opacity="1" fill-rule="nonzero"/></g></g></g></g><g clip-path="url(#0774a04600)"><g clip-path="url(#831ab90690)"><g clip-path="url(#2b4a150615)"><g clip-path="url(#2f55723bbd)"><path fill="#ffffff" d="M 212.878906 253.527344 L 216.503906 254.304688 L 219.1875 251.722656 L 219.632812 255.441406 L 222.914062 257.199219 L 219.535156 258.734375 L 218.867188 262.414062 L 216.34375 259.652344 L 212.660156 260.164062 L 214.492188 256.890625 Z M 212.878906 253.527344 " fill-opacity="1" fill-rule="nonzero"/></g></g></g></g><g clip-path="url(#1c0add9831)"><g clip-path="url(#49752f02de)"><g clip-path="url(#e5224217ab)"><g clip-path="url(#66bc6fd4be)"><path fill="#ffffff" d="M 222.265625 241.417969 L 225.890625 242.195312 L 228.578125 239.613281 L 229.023438 243.332031 L 232.300781 245.089844 L 228.925781 246.625 L 228.257812 250.304688 L 225.734375 247.542969 L 222.050781 248.054688 L 223.894531 244.816406 Z M 222.265625 241.417969 " fill-opacity="1" fill-rule="nonzero"/></g></g></g></g><g clip-path="url(#b67e0f0974)"><g clip-path="url(#781469fdbb)"><g clip-path="url(#3c4d674945)"><g clip-path="url(#b55f7d34d5)"><path fill="#ffffff" d="M 231.859375 229.0625 L 235.519531 229.828125 L 238.203125 227.242188 L 238.632812 230.925781 L 241.914062 232.679688 L 238.5 234.234375 L 237.871094 237.898438 L 235.347656 235.136719 L 231.664062 235.648438 L 233.507812 232.410156 Z M 231.859375 229.0625 " fill-opacity="1" fill-rule="nonzero"/></g></g></g></g><g clip-path="url(#652e92a896)"><g clip-path="url(#2cf6a5a0af)"><g clip-path="url(#cba0f27cab)"><g clip-path="url(#42c96612f0)"><path fill="#ffffff" d="M 245.15625 276.695312 L 248.820312 277.457031 L 251.503906 274.875 L 251.910156 278.609375 L 255.191406 280.363281 L 251.816406 281.902344 L 251.183594 285.566406 L 248.660156 282.804688 L 244.976562 283.316406 L 246.808594 280.039062 Z M 245.15625 276.695312 " fill-opacity="1" fill-rule="nonzero"/></g></g></g></g><g clip-path="url(#fb3a48e138)"><g clip-path="url(#d159bb2f61)"><g clip-path="url(#eb638ad6d9)"><g clip-path="url(#e26bc4bca5)"><path fill="#ffffff" d="M 254.558594 264.621094 L 258.207031 265.347656 L 260.890625 262.761719 L 261.300781 266.5 L 264.582031 268.253906 L 261.203125 269.792969 L 260.574219 273.457031 L 258.050781 270.695312 L 254.367188 271.207031 L 256.210938 267.96875 Z M 254.558594 264.621094 " fill-opacity="1" fill-rule="nonzero"/></g></g></g></g><g clip-path="url(#b6ef0d540e)"><g clip-path="url(#95f0588653)"><g clip-path="url(#c6b25e275c)"><g clip-path="url(#755174669d)"><path fill="#ffffff" d="M 264.171875 252.214844 L 267.835938 252.976562 L 270.519531 250.394531 L 270.914062 254.089844 L 274.195312 255.847656 L 270.816406 257.382812 L 270.148438 261.0625 L 267.660156 258.289062 L 263.980469 258.800781 L 265.789062 255.574219 Z M 264.171875 252.214844 " fill-opacity="1" fill-rule="nonzero"/></g></g></g></g><g clip-path="url(#bc9a380b4c)"><g clip-path="url(#51ddf17536)"><g clip-path="url(#20ec404996)"><g clip-path="url(#d358b51172)"><path fill="#55afdf" d="M 313.753906 243.726562 L 210.875 305.03125 L 211.089844 305.371094 C 215.566406 312.933594 213.316406 322.539062 206.042969 326.910156 L 205.703125 327.125 L 230.917969 369.507812 L 231.257812 369.296875 C 238.542969 364.960938 248.085938 367.550781 252.558594 375.109375 L 252.773438 375.453125 L 355.648438 314.148438 L 355.4375 313.808594 C 350.960938 306.25 353.210938 296.640625 360.484375 292.269531 L 360.824219 292.054688 L 335.609375 249.671875 L 335.269531 249.886719 C 327.984375 254.21875 318.441406 251.628906 313.96875 244.070312 Z M 313.753906 243.726562 " fill-opacity="1" fill-rule="nonzero"/></g></g></g></g><g clip-path="url(#d355856a75)"><g clip-path="url(#cc60970bf1)"><g clip-path="url(#6969a55f3d)"><g clip-path="url(#a6a7d52b8b)"><path fill="#ffffff" d="M 254.488281 369.765625 L 254.21875 369.277344 C 250.792969 363.476562 243.714844 361.050781 237.417969 363.441406 C 236.644531 363.738281 235.9375 364.089844 235.207031 364.496094 L 234.71875 364.765625 L 212.273438 326.996094 L 212.746094 326.6875 C 219.300781 322.757812 221.496094 314.230469 217.574219 307.6875 L 217.304688 307.195312 L 217.476562 307.089844 L 312.066406 250.710938 L 312.339844 251.199219 C 315.765625 257.003906 322.839844 259.429688 329.136719 257.035156 C 329.910156 256.742188 330.621094 256.386719 331.351562 255.984375 L 331.835938 255.714844 L 331.945312 255.882812 L 354.285156 293.484375 L 353.796875 293.753906 C 350.597656 295.644531 348.332031 298.664062 347.425781 302.265625 C 346.515625 305.867188 347.050781 309.59375 348.929688 312.769531 L 349.203125 313.261719 L 349.03125 313.367188 Z M 237.265625 363.035156 C 243.746094 360.574219 250.988281 363.105469 254.558594 369.0625 L 254.652344 369.199219 L 348.773438 313.128906 L 348.679688 312.992188 C 346.71875 309.722656 346.195312 305.902344 347.148438 302.199219 C 348.101562 298.5 350.425781 295.414062 353.6875 293.457031 L 353.820312 293.363281 L 331.761719 256.292969 L 331.628906 256.386719 C 330.914062 256.828125 330.167969 257.195312 329.394531 257.488281 C 322.914062 259.953125 315.671875 257.417969 312.097656 251.460938 L 312.007812 251.328125 L 217.886719 307.398438 L 217.980469 307.53125 C 221.984375 314.296875 219.75 323.054688 212.972656 327.066406 L 212.839844 327.160156 L 234.894531 364.234375 L 235.03125 364.140625 C 235.710938 363.710938 236.492188 363.332031 237.265625 363.035156 Z M 237.265625 363.035156 " fill-opacity="1" fill-rule="nonzero"/></g></g></g></g><g clip-path="url(#f7a950d3ce)"><g clip-path="url(#8358cbeb1d)"><g clip-path="url(#773e80dd0e)"><g clip-path="url(#b6d06a71cd)"><path fill="#ffffff" d="M 240.828125 334.492188 L 240.816406 334.457031 C 238.371094 330.351562 239.457031 325.121094 243.898438 322.5 C 246.613281 320.878906 248.777344 320.816406 250.921875 321.355469 L 250.289062 324.894531 C 248.585938 324.523438 247.054688 324.597656 245.660156 325.46875 C 243.214844 326.90625 242.695312 329.976562 244.148438 332.46875 L 244.164062 332.507812 C 245.652344 334.984375 248.578125 336.03125 251.046875 334.542969 C 252.703125 333.574219 253.308594 332.289062 253.847656 330.601562 L 257.078125 331.445312 C 256.546875 333.933594 255.480469 335.902344 252.695312 337.550781 C 248.375 340.039062 243.289062 338.632812 240.828125 334.492188 Z M 240.828125 334.492188 " fill-opacity="1" fill-rule="nonzero"/></g></g></g></g><g clip-path="url(#6ccc7115f9)"><g clip-path="url(#8c93d4f73c)"><g clip-path="url(#0b833030ad)"><g clip-path="url(#cf1e3aa9a2)"><path fill="#ffffff" d="M 252.476562 317.675781 L 255.636719 315.796875 L 264.246094 330.242188 L 261.085938 332.121094 Z M 252.476562 317.675781 " fill-opacity="1" fill-rule="nonzero"/></g></g></g></g><g clip-path="url(#d2c4f654a1)"><g clip-path="url(#7f0341d952)"><g clip-path="url(#5bfd618160)"><g clip-path="url(#52ba904bf5)"><path fill="#ffffff" d="M 259.25 313.664062 L 262.171875 311.917969 L 274.226562 316.808594 L 268.949219 307.90625 L 272.074219 306.042969 L 280.683594 320.488281 L 278.007812 322.09375 L 265.558594 317.058594 L 271.023438 326.230469 L 267.898438 328.09375 Z M 259.25 313.664062 " fill-opacity="1" fill-rule="nonzero"/></g></g></g></g><g clip-path="url(#6b6f33c8a1)"><g clip-path="url(#6f877e9e29)"><g clip-path="url(#338b865d5e)"><g clip-path="url(#83851b97b1)"><path fill="#ffffff" d="M 275.503906 303.976562 L 286.367188 297.523438 L 288.035156 300.355469 L 280.296875 304.945312 L 282.042969 307.875 L 288.84375 303.8125 L 290.511719 306.644531 L 283.710938 310.710938 L 285.5 313.75 L 293.332031 309.082031 L 295 311.914062 L 284.039062 318.449219 Z M 275.503906 303.976562 " fill-opacity="1" fill-rule="nonzero"/></g></g></g></g><g clip-path="url(#9919a1e2b8)"><g clip-path="url(#2e2434080d)"><g clip-path="url(#d15606c7a2)"><g clip-path="url(#86ea1a53b3)"><path fill="#ffffff" d="M 289.273438 295.742188 L 292.679688 293.726562 L 300.089844 297.589844 L 300.234375 289.207031 L 303.640625 287.191406 L 312.25 301.636719 L 309.085938 303.515625 L 303.46875 294.066406 L 303.074219 302.671875 L 303.003906 302.699219 L 295.398438 298.996094 L 300.984375 308.371094 L 297.894531 310.222656 Z M 289.273438 295.742188 " fill-opacity="1" fill-rule="nonzero"/></g></g></g></g><g clip-path="url(#d47394f7da)"><g clip-path="url(#81b2787bac)"><g clip-path="url(#1c4e5269f1)"><g clip-path="url(#4e5f65ef70)"><path fill="#ffffff" d="M 312.015625 282.066406 L 314.933594 280.320312 L 329.78125 291.210938 L 326.484375 293.183594 L 323.234375 290.738281 L 317.152344 294.363281 L 317.761719 298.402344 L 314.523438 300.308594 Z M 320.402344 288.601562 L 315.6875 285.066406 L 316.558594 290.910156 Z M 320.402344 288.601562 " fill-opacity="1" fill-rule="nonzero"/></g></g></g></g><g clip-path="url(#7d430f28ff)"><g clip-path="url(#02b84833df)"><g clip-path="url(#2b750204d5)"><g clip-path="url(#e775fddec2)"><path fill="#ffffff" d="M 223.390625 326.871094 L 222.792969 326.292969 L 223.25 325.824219 L 224.207031 326.6875 L 224.476562 327.175781 L 220.5625 329.511719 L 220.167969 328.816406 Z M 223.390625 326.871094 " fill-opacity="1" fill-rule="nonzero"/></g></g></g></g><g clip-path="url(#4b0d5cf35e)"><g clip-path="url(#b0fa5fa0a6)"><g clip-path="url(#7d5ec2e2f7)"><g clip-path="url(#640daf1581)"><path fill="#ffffff" d="M 222.261719 331.105469 L 224.199219 331.765625 C 224.972656 332.023438 225.335938 332.09375 225.675781 331.878906 C 226.054688 331.652344 226.109375 331.25 225.894531 330.910156 C 225.683594 330.566406 225.328125 330.40625 224.761719 330.367188 L 224.871094 329.648438 C 225.609375 329.707031 226.140625 329.886719 226.546875 330.621094 C 227 331.375 226.847656 332.195312 226.15625 332.585938 C 225.535156 332.949219 225.015625 332.808594 224.042969 332.460938 L 222.875 332.054688 L 223.964844 333.925781 L 223.382812 334.273438 L 221.714844 331.441406 Z M 222.261719 331.105469 " fill-opacity="1" fill-rule="nonzero"/></g></g></g></g><g clip-path="url(#97cd74dda4)"><g clip-path="url(#a529df9887)"><g clip-path="url(#6cfe60d0a8)"><g clip-path="url(#5a24fa5de9)"><path fill="#ffffff" d="M 225.046875 335.546875 L 225.765625 335.777344 C 225.613281 336.261719 225.605469 336.683594 225.847656 337.101562 C 226.074219 337.480469 226.46875 337.625 226.859375 337.433594 C 227.238281 337.207031 227.265625 336.730469 226.929688 336.179688 L 226.730469 335.875 L 227.101562 335.523438 L 228.851562 335.914062 L 227.832031 334.230469 L 228.417969 333.882812 L 229.949219 336.472656 L 229.4375 336.792969 L 227.675781 336.363281 C 227.964844 337.015625 227.980469 337.726562 227.265625 338.167969 C 226.546875 338.609375 225.6875 338.34375 225.21875 337.550781 C 224.835938 336.765625 224.847656 336.128906 225.046875 335.546875 Z M 225.046875 335.546875 " fill-opacity="1" fill-rule="nonzero"/></g></g></g></g><g clip-path="url(#f75c59dceb)"><g clip-path="url(#7ea026f55a)"><g clip-path="url(#488eafd497)"><g clip-path="url(#720ab2234d)"><path fill="#ffffff" d="M 229.238281 342.027344 L 228.070312 340.0625 L 228.5 339.644531 L 232.371094 340.289062 L 232.71875 340.875 L 230.25 342.363281 L 230.585938 342.910156 L 230.039062 343.246094 L 229.703125 342.695312 L 228.839844 343.195312 L 228.460938 342.535156 Z M 229.785156 341.691406 L 231.328125 340.769531 L 229.042969 340.410156 Z M 229.785156 341.691406 " fill-opacity="1" fill-rule="nonzero"/></g></g></g></g><g clip-path="url(#b95b517cfe)"><g clip-path="url(#cb9ce3bb5a)"><g clip-path="url(#d616932d53)"><g clip-path="url(#9cefb2f235)"><path fill="#ffffff" d="M 230.578125 345.113281 L 231.34375 345.242188 C 231.242188 345.75 231.273438 346.160156 231.5 346.539062 C 231.769531 347.027344 232.238281 347.144531 232.652344 346.90625 C 233.0625 346.664062 233.09375 346.1875 232.824219 345.695312 C 232.675781 345.414062 232.429688 345.210938 232.210938 345.082031 L 232.25 344.519531 L 234.214844 343.476562 L 235.609375 345.820312 L 234.988281 346.183594 L 233.941406 344.425781 L 232.988281 344.914062 C 233.171875 345.058594 233.316406 345.214844 233.449219 345.457031 C 233.90625 346.214844 233.839844 347.042969 233.027344 347.5625 C 232.238281 348.035156 231.378906 347.769531 230.84375 346.914062 C 230.492188 346.328125 230.464844 345.703125 230.578125 345.113281 Z M 230.578125 345.113281 " fill-opacity="1" fill-rule="nonzero"/></g></g></g></g><g clip-path="url(#a0004d87e9)"><g clip-path="url(#c7bb64df21)"><g clip-path="url(#d0a50533ce)"><g clip-path="url(#a50e81ef4d)"><path fill="#ffffff" d="M 233.457031 350.359375 C 233.574219 349.894531 233.882812 349.480469 234.671875 349.011719 C 235.878906 348.300781 237.152344 348.324219 237.785156 349.433594 C 238.105469 349.949219 238.148438 350.394531 238.046875 350.898438 L 237.308594 350.84375 C 237.367188 350.441406 237.339844 350.152344 237.164062 349.796875 C 236.816406 349.210938 236.089844 349.191406 235.359375 349.597656 C 235.6875 349.683594 236.042969 349.84375 236.300781 350.296875 C 236.757812 351.050781 236.667969 351.929688 235.878906 352.402344 C 235.085938 352.871094 234.164062 352.546875 233.691406 351.75 C 233.394531 351.1875 233.363281 350.777344 233.457031 350.359375 Z M 235.433594 351.679688 C 235.847656 351.4375 235.914062 350.949219 235.644531 350.460938 C 235.375 349.96875 234.871094 349.867188 234.480469 350.058594 C 234.066406 350.296875 233.964844 350.804688 234.269531 351.277344 C 234.554688 351.804688 235.058594 351.910156 235.433594 351.679688 Z M 235.433594 351.679688 " fill-opacity="1" fill-rule="nonzero"/></g></g></g></g><g clip-path="url(#98ab942f87)"><g clip-path="url(#3bcf5e1e39)"><g clip-path="url(#f7f54fdc0d)"><g clip-path="url(#07fb435fdc)"><path fill="#ffffff" d="M 240.121094 354.804688 L 238.953125 352.839844 L 239.535156 352.492188 L 241.175781 355.25 L 240.664062 355.570312 L 236.246094 355.8125 L 235.789062 355.054688 Z M 240.121094 354.804688 " fill-opacity="1" fill-rule="nonzero"/></g></g></g></g><g clip-path="url(#74f4e9f5d3)"><g clip-path="url(#1cc06e227f)"><g clip-path="url(#934e0fbd5e)"><g clip-path="url(#2380016025)"><path fill="#ffffff" d="M 344.5625 294.175781 L 345.160156 294.753906 L 344.707031 295.222656 L 343.746094 294.359375 L 343.476562 293.871094 L 347.390625 291.535156 L 347.785156 292.234375 Z M 344.5625 294.175781 " fill-opacity="1" fill-rule="nonzero"/></g></g></g></g><g clip-path="url(#a3d38ff654)"><g clip-path="url(#f564700bbd)"><g clip-path="url(#e9edc2d7c5)"><g clip-path="url(#2ccd910152)"><path fill="#ffffff" d="M 345.703125 289.980469 L 343.769531 289.320312 C 342.996094 289.0625 342.632812 288.992188 342.292969 289.203125 C 341.914062 289.433594 341.855469 289.835938 342.070312 290.175781 C 342.285156 290.519531 342.640625 290.679688 343.203125 290.71875 L 343.097656 291.433594 C 342.359375 291.378906 341.828125 291.199219 341.421875 290.464844 C 340.964844 289.707031 341.117188 288.890625 341.8125 288.5 C 342.433594 288.136719 342.949219 288.277344 343.925781 288.625 L 345.089844 289.027344 L 344 287.160156 L 344.585938 286.8125 L 346.25 289.644531 Z M 345.703125 289.980469 " fill-opacity="1" fill-rule="nonzero"/></g></g></g></g><g clip-path="url(#ff307c2af5)"><g clip-path="url(#53aaba1024)"><g clip-path="url(#fa928a63ba)"><g clip-path="url(#540dd512af)"><path fill="#ffffff" d="M 342.90625 285.503906 L 342.1875 285.269531 C 342.339844 284.789062 342.347656 284.363281 342.105469 283.949219 C 341.878906 283.570312 341.484375 283.421875 341.09375 283.613281 C 340.714844 283.839844 340.6875 284.316406 341.023438 284.867188 L 341.222656 285.171875 L 340.851562 285.523438 L 339.101562 285.132812 L 340.121094 286.816406 L 339.535156 287.164062 L 338.003906 284.578125 L 338.515625 284.253906 L 340.277344 284.683594 C 339.988281 284.035156 339.972656 283.320312 340.6875 282.878906 C 341.40625 282.4375 342.265625 282.703125 342.734375 283.496094 C 343.117188 284.28125 343.121094 284.957031 342.90625 285.503906 Z M 342.90625 285.503906 " fill-opacity="1" fill-rule="nonzero"/></g></g></g></g><g clip-path="url(#2a33ac4cd9)"><g clip-path="url(#aca77969f4)"><g clip-path="url(#259a5c40d9)"><g clip-path="url(#4f5a138d94)"><path fill="#ffffff" d="M 338.714844 279.019531 L 339.882812 280.984375 L 339.453125 281.402344 L 335.585938 280.761719 L 335.234375 280.175781 L 337.703125 278.6875 L 337.367188 278.136719 L 337.914062 277.800781 L 338.25 278.351562 L 339.113281 277.851562 L 339.492188 278.511719 Z M 338.167969 279.355469 L 336.625 280.28125 L 338.910156 280.636719 Z M 338.167969 279.355469 " fill-opacity="1" fill-rule="nonzero"/></g></g></g></g><g clip-path="url(#917ee59db7)"><g clip-path="url(#1eebe05eed)"><g clip-path="url(#9426b5caa1)"><g clip-path="url(#bf4c442504)"><path fill="#ffffff" d="M 337.375 275.9375 L 336.609375 275.804688 C 336.710938 275.300781 336.679688 274.886719 336.453125 274.511719 C 336.183594 274.019531 335.714844 273.902344 335.304688 274.144531 C 334.890625 274.386719 334.859375 274.863281 335.128906 275.351562 C 335.277344 275.632812 335.523438 275.835938 335.742188 275.964844 L 335.753906 276.550781 L 333.789062 277.59375 L 332.394531 275.25 L 333.015625 274.886719 L 334.0625 276.644531 L 335.015625 276.15625 C 334.832031 276.011719 334.691406 275.855469 334.554688 275.613281 C 334.097656 274.855469 334.164062 274.027344 334.976562 273.507812 C 335.765625 273.035156 336.625 273.300781 337.160156 274.15625 C 337.472656 274.757812 337.488281 275.34375 337.375 275.9375 Z M 337.375 275.9375 " fill-opacity="1" fill-rule="nonzero"/></g></g></g></g><g clip-path="url(#3b7e5da037)"><g clip-path="url(#49f9e93264)"><g clip-path="url(#0e0be79f5f)"><g clip-path="url(#7bd1d0a7b7)"><path fill="#ffffff" d="M 334.496094 270.6875 C 334.378906 271.15625 334.070312 271.566406 333.28125 272.039062 C 332.074219 272.75 330.800781 272.726562 330.167969 271.613281 C 329.847656 271.101562 329.804688 270.652344 329.90625 270.148438 L 330.644531 270.207031 C 330.585938 270.609375 330.613281 270.894531 330.789062 271.25 C 331.136719 271.835938 331.863281 271.855469 332.59375 271.453125 C 332.265625 271.367188 331.910156 271.203125 331.652344 270.753906 C 331.199219 269.996094 331.285156 269.117188 332.074219 268.648438 C 332.867188 268.175781 333.789062 268.503906 334.261719 269.296875 C 334.558594 269.859375 334.601562 270.308594 334.496094 270.6875 Z M 332.519531 269.367188 C 332.105469 269.609375 332.039062 270.097656 332.308594 270.589844 C 332.578125 271.078125 333.082031 271.183594 333.472656 270.992188 C 333.886719 270.75 333.988281 270.246094 333.683594 269.769531 C 333.398438 269.242188 332.894531 269.140625 332.519531 269.367188 Z M 332.519531 269.367188 " fill-opacity="1" fill-rule="nonzero"/></g></g></g></g><g clip-path="url(#b4e5a81835)"><g clip-path="url(#b3a7be720b)"><g clip-path="url(#339b59f71c)"><g clip-path="url(#6830da364c)"><path fill="#ffffff" d="M 327.832031 266.242188 L 329 268.207031 L 328.378906 268.570312 L 326.742188 265.8125 L 327.25 265.492188 L 331.667969 265.25 L 332.125 266.007812 Z M 327.832031 266.242188 " fill-opacity="1" fill-rule="nonzero"/></g></g></g></g><g clip-path="url(#acaf46d47f)"><g clip-path="url(#47fb2631fa)"><g clip-path="url(#cf560ce77b)"><g clip-path="url(#36401957df)"><path fill="#ffffff" d="M 236.777344 307.535156 L 239.871094 309.570312 L 243.339844 308.167969 L 242.382812 311.746094 L 244.773438 314.601562 L 241.050781 314.789062 L 239.140625 317.96875 L 237.785156 314.507812 L 234.152344 313.605469 L 237.0625 311.273438 Z M 236.777344 307.535156 " fill-opacity="1" fill-rule="nonzero"/></g></g></g></g><g clip-path="url(#861c4ffe43)"><g clip-path="url(#4d5e090e18)"><g clip-path="url(#6f6a24ceda)"><g clip-path="url(#cd9268885b)"><path fill="#ffffff" d="M 250.21875 299.546875 L 253.347656 301.574219 L 256.769531 300.144531 L 255.824219 303.761719 L 258.253906 306.601562 L 254.53125 306.789062 L 252.570312 309.945312 L 251.25 306.472656 L 247.632812 305.605469 L 250.527344 303.238281 Z M 250.21875 299.546875 " fill-opacity="1" fill-rule="nonzero"/></g></g></g></g><g clip-path="url(#3a48bec6e4)"><g clip-path="url(#6ac5ae9769)"><g clip-path="url(#e7f80303ec)"><g clip-path="url(#9420a39928)"><path fill="#ffffff" d="M 263.027344 291.890625 L 266.15625 293.914062 L 269.589844 292.523438 L 268.632812 296.101562 L 271.0625 298.941406 L 267.339844 299.128906 L 265.394531 302.324219 L 264.074219 298.851562 L 260.441406 297.945312 L 263.347656 295.617188 Z M 263.027344 291.890625 " fill-opacity="1" fill-rule="nonzero"/></g></g></g></g><g clip-path="url(#89af87c164)"><g clip-path="url(#778dc3b8fb)"><g clip-path="url(#bb8efb2c3e)"><g clip-path="url(#ddac2b0f81)"><path fill="#ffffff" d="M 276.496094 283.851562 L 279.636719 285.914062 L 283.058594 284.488281 L 282.097656 288.066406 L 284.527344 290.90625 L 280.820312 291.132812 L 278.859375 294.285156 L 277.539062 290.8125 L 273.921875 289.949219 L 276.777344 287.59375 Z M 276.496094 283.851562 " fill-opacity="1" fill-rule="nonzero"/></g></g></g></g><g clip-path="url(#af0d673426)"><g clip-path="url(#c62a6bbd88)"><g clip-path="url(#4767e72bca)"><g clip-path="url(#cf0f54294c)"><path fill="#ffffff" d="M 289.621094 276.03125 L 292.75 278.054688 L 296.21875 276.652344 L 295.226562 280.242188 L 297.652344 283.082031 L 293.933594 283.273438 L 292.019531 286.449219 L 290.664062 282.992188 L 287.035156 282.089844 L 289.941406 279.757812 Z M 289.621094 276.03125 " fill-opacity="1" fill-rule="nonzero"/></g></g></g></g><g clip-path="url(#2dca85854e)"><g clip-path="url(#13cebd53c1)"><g clip-path="url(#e6917de25f)"><g clip-path="url(#b21f845c89)"><path fill="#ffffff" d="M 303.101562 268.03125 L 306.230469 270.054688 L 309.648438 268.628906 L 308.703125 272.246094 L 311.132812 275.085938 L 307.410156 275.273438 L 305.449219 278.429688 L 304.128906 274.957031 L 300.515625 274.089844 L 303.40625 271.722656 Z M 303.101562 268.03125 " fill-opacity="1" fill-rule="nonzero"/></g></g></g></g><g clip-path="url(#0a4a9a0952)"><g clip-path="url(#2780d10af1)"><g clip-path="url(#2e61debbb3)"><g clip-path="url(#87dd93ca5b)"><path fill="#ffffff" d="M 258.476562 340.894531 L 261.605469 342.917969 L 265.023438 341.492188 L 264.082031 345.105469 L 266.507812 347.945312 L 262.789062 348.136719 L 260.839844 351.328125 L 259.507812 347.816406 L 255.890625 346.953125 L 258.746094 344.597656 Z M 258.476562 340.894531 " fill-opacity="1" fill-rule="nonzero"/></g></g></g></g><g clip-path="url(#35a6d8e6c1)"><g clip-path="url(#865f058104)"><g clip-path="url(#0d6b50d420)"><g clip-path="url(#358dda4966)"><path fill="#ffffff" d="M 271.90625 332.871094 L 275.035156 334.894531 L 278.503906 333.492188 L 277.507812 337.085938 L 279.9375 339.925781 L 276.214844 340.113281 L 274.304688 343.292969 L 272.949219 339.832031 L 269.320312 338.929688 L 272.226562 336.597656 Z M 271.90625 332.871094 " fill-opacity="1" fill-rule="nonzero"/></g></g></g></g><g clip-path="url(#cb78158806)"><g clip-path="url(#473f7f74e5)"><g clip-path="url(#107f6413e2)"><g clip-path="url(#6d44f9ec83)"><path fill="#ffffff" d="M 284.726562 325.25 L 287.855469 327.273438 L 291.3125 325.832031 L 290.332031 329.460938 L 292.761719 332.300781 L 289.039062 332.492188 L 287.128906 335.667969 L 285.757812 332.171875 L 282.140625 331.308594 L 285.035156 328.9375 Z M 284.726562 325.25 " fill-opacity="1" fill-rule="nonzero"/></g></g></g></g><g clip-path="url(#b7047be92a)"><g clip-path="url(#e163fe9349)"><g clip-path="url(#3b9e854a74)"><g clip-path="url(#ffbc3b503e)"><path fill="#ffffff" d="M 298.191406 317.214844 L 301.324219 319.238281 L 304.742188 317.8125 L 303.796875 321.425781 L 306.226562 324.265625 L 302.503906 324.453125 L 300.558594 327.648438 L 299.222656 324.136719 L 295.605469 323.269531 L 298.515625 320.941406 Z M 298.191406 317.214844 " fill-opacity="1" fill-rule="nonzero"/></g></g></g></g><g clip-path="url(#d15c5e47a9)"><g clip-path="url(#ba46f8a52f)"><g clip-path="url(#8d4c26af00)"><g clip-path="url(#4f788cc0f1)"><path fill="#ffffff" d="M 311.355469 309.378906 L 314.484375 311.402344 L 317.90625 309.976562 L 316.960938 313.589844 L 319.390625 316.429688 L 315.667969 316.617188 L 313.71875 319.8125 L 312.386719 316.300781 L 308.769531 315.433594 L 311.625 313.082031 Z M 311.355469 309.378906 " fill-opacity="1" fill-rule="nonzero"/></g></g></g></g><g clip-path="url(#80f5a7f107)"><g clip-path="url(#f55e8e33f5)"><g clip-path="url(#e0eb283c44)"><g clip-path="url(#2dd573c9ac)"><path fill="#ffffff" d="M 324.785156 301.355469 L 327.914062 303.378906 L 331.382812 301.976562 L 330.390625 305.566406 L 332.816406 308.410156 L 329.097656 308.597656 L 327.1875 311.777344 L 325.828125 308.316406 L 322.199219 307.414062 L 325.105469 305.082031 Z M 324.785156 301.355469 " fill-opacity="1" fill-rule="nonzero"/></g></g></g></g></svg>